<svg width="513" height="513" viewBox="0 0 513 513" fill="none" xmlns="http://www.w3.org/2000/svg">
<path d="M121.305 304.92V305.119C77.4034 307.957 42.6674 344.444 42.6674 389.063C42.6674 433.682 77.4034 470.169 121.305 473.007V473.206H202.793V304.92H121.305Z" fill="#FE7E8A"/>
<path d="M57.7833 174.039V174.194C27.4093 176.401 3.37634 204.778 3.37634 239.48C3.37634 274.182 27.4083 302.558 57.7833 304.766V304.921H114.162V174.039H57.7833Z" fill="#132028"/>
<path d="M146.017 27.3276V27.5006C111.969 29.9746 85.0303 61.7836 85.0303 100.683C85.0303 139.582 111.969 171.391 146.017 173.865V174.038H220.407V27.3276H146.017Z" fill="#6CA298"/>
<path d="M459.415 142.591V58.7765C459.415 56.6654 460.254 54.6408 461.747 53.148C463.24 51.6552 465.264 50.8165 467.375 50.8165H484.087C486.198 50.8165 488.223 49.9779 489.716 48.4851C491.209 46.9923 492.047 44.9677 492.047 42.8565V35.2865C492.047 33.1754 491.209 31.1508 489.716 29.658C488.223 28.1652 486.198 27.3265 484.087 27.3265H228.307C226.196 27.3265 224.172 28.1652 222.679 29.658C221.186 31.1508 220.347 33.1754 220.347 35.2865V166.079C220.347 168.19 221.186 170.214 222.679 171.707C224.172 173.2 226.196 174.039 228.307 174.039H484.087C486.198 174.039 488.223 173.2 489.716 171.707C491.209 170.214 492.047 168.19 492.047 166.079V158.509C492.047 156.397 491.209 154.373 489.716 152.88C488.223 151.387 486.198 150.549 484.087 150.549H467.375C466.33 150.549 465.295 150.343 464.329 149.943C463.364 149.544 462.486 148.957 461.747 148.218C461.008 147.479 460.421 146.602 460.021 145.636C459.621 144.671 459.415 143.636 459.415 142.591Z" fill="#30E3CA"/>
<path d="M418.545 198.381H469.059C475.034 198.381 479.878 194.647 479.878 190.04V182.379C479.878 177.773 475.034 174.038 469.059 174.038H111.957V174.236C82.2213 176.724 58.7693 204.972 58.7693 239.478C58.7693 273.984 82.2213 302.232 111.957 304.72V304.918H469.059C475.034 304.918 479.878 301.184 479.878 296.577V288.213C479.878 283.607 475.034 279.872 469.059 279.872H418.545C412.57 279.872 407.726 276.138 407.726 271.531V206.719C407.726 202.115 412.57 198.381 418.545 198.381Z" fill="#445056"/>
<path d="M455.07 279.874L452.955 277.919C452.717 277.681 452.527 277.397 452.398 277.086C452.269 276.774 452.202 276.44 452.202 276.102C452.202 275.764 452.269 275.43 452.398 275.118C452.527 274.806 452.717 274.523 452.955 274.284L455.249 271.99C455.488 271.752 455.677 271.468 455.807 271.157C455.936 270.845 456.002 270.511 456.002 270.173C456.002 269.835 455.936 269.501 455.807 269.189C455.677 268.877 455.488 268.594 455.249 268.355L452.955 266.061C452.717 265.823 452.527 265.539 452.398 265.228C452.269 264.916 452.202 264.582 452.202 264.244C452.202 263.906 452.269 263.572 452.398 263.26C452.527 262.948 452.717 262.665 452.955 262.426L455.249 260.133C455.488 259.894 455.677 259.61 455.807 259.299C455.936 258.987 456.002 258.653 456.002 258.315C456.002 257.977 455.936 257.643 455.807 257.331C455.677 257.019 455.488 256.736 455.249 256.497L452.955 254.203C452.717 253.965 452.527 253.681 452.398 253.37C452.269 253.058 452.202 252.724 452.202 252.386C452.202 252.048 452.269 251.714 452.398 251.402C452.527 251.09 452.717 250.807 452.955 250.568L455.249 248.274C455.488 248.036 455.677 247.752 455.807 247.441C455.936 247.129 456.002 246.795 456.002 246.457C456.002 246.119 455.936 245.785 455.807 245.473C455.677 245.161 455.488 244.878 455.249 244.639L452.955 242.345C452.717 242.107 452.527 241.823 452.398 241.512C452.269 241.2 452.202 240.866 452.202 240.528C452.202 240.19 452.269 239.856 452.398 239.544C452.527 239.232 452.717 238.949 452.955 238.71L455.249 236.416C455.488 236.178 455.677 235.894 455.807 235.583C455.936 235.271 456.002 234.937 456.002 234.599C456.002 234.261 455.936 233.927 455.807 233.615C455.677 233.303 455.488 233.02 455.249 232.781L452.955 230.487C452.717 230.249 452.527 229.965 452.398 229.654C452.269 229.342 452.202 229.008 452.202 228.67C452.202 228.332 452.269 227.998 452.398 227.686C452.527 227.374 452.717 227.091 452.955 226.852L455.249 224.558C455.488 224.32 455.677 224.036 455.807 223.725C455.936 223.413 456.002 223.079 456.002 222.741C456.002 222.403 455.936 222.069 455.807 221.757C455.677 221.445 455.488 221.162 455.249 220.923L452.955 218.629C452.717 218.391 452.527 218.107 452.398 217.796C452.269 217.484 452.202 217.15 452.202 216.812C452.202 216.474 452.269 216.14 452.398 215.828C452.527 215.516 452.717 215.233 452.955 214.994L455.249 212.701C455.488 212.462 455.677 212.178 455.807 211.867C455.936 211.555 456.002 211.221 456.002 210.883C456.002 210.545 455.936 210.211 455.807 209.899C455.677 209.587 455.488 209.304 455.249 209.065L452.955 206.771C452.717 206.533 452.527 206.249 452.398 205.938C452.269 205.626 452.202 205.292 452.202 204.954C452.202 204.616 452.269 204.282 452.398 203.97C452.527 203.658 452.717 203.375 452.955 203.136L455.249 200.842C456.253 199.838 456.253 199.342 455.249 198.339L451.138 198.374H126.636C123.651 197.391 120.529 196.889 117.386 196.885C98.2153 196.885 82.6743 215.31 82.6743 238.039C82.6743 260.768 98.2153 279.193 117.386 279.193V280.029H451.139" fill="#DCE2E2"/>
<path d="M220.347 27.3276C179.834 27.3276 146.992 60.1696 146.992 100.683C146.992 141.196 179.834 174.038 220.347 174.038H257.025V27.3276H220.347Z" fill="#219988"/>
<path d="M479.716 67.4215C479.955 67.1829 480.144 66.8995 480.274 66.5877C480.403 66.2758 480.469 65.9416 480.469 65.604C480.469 65.2665 480.403 64.9322 480.274 64.6204C480.144 64.3085 479.955 64.0252 479.716 63.7865L477.422 61.4925C477.184 61.2539 476.994 60.9705 476.865 60.6587C476.736 60.3468 476.669 60.0126 476.669 59.675C476.669 59.3375 476.736 59.0032 476.865 58.6914C476.994 58.3795 477.184 58.0962 477.422 57.8575L479.716 55.5635C480.72 54.5595 480.881 51.8205 479.878 50.8165H223.796C196.256 50.8165 173.93 73.1425 173.93 100.683C173.93 128.223 196.256 150.549 223.796 150.549H479.727C480.731 149.545 480.721 147.795 479.717 146.791L477.423 144.497C477.185 144.258 476.995 143.975 476.866 143.663C476.737 143.351 476.67 143.017 476.67 142.679C476.67 142.341 476.737 142.007 476.866 141.695C476.995 141.384 477.185 141.1 477.423 140.862L479.717 138.568C479.956 138.329 480.145 138.046 480.275 137.734C480.404 137.422 480.47 137.088 480.47 136.75C480.47 136.412 480.404 136.078 480.275 135.766C480.145 135.455 479.956 135.171 479.717 134.933L477.423 132.639C477.185 132.4 476.995 132.117 476.866 131.805C476.737 131.493 476.67 131.159 476.67 130.821C476.67 130.483 476.737 130.149 476.866 129.837C476.995 129.526 477.185 129.242 477.423 129.004L479.717 126.71C479.956 126.471 480.145 126.188 480.275 125.876C480.404 125.564 480.47 125.23 480.47 124.892C480.47 124.554 480.404 124.22 480.275 123.908C480.145 123.597 479.956 123.313 479.717 123.075L477.423 120.781C477.185 120.542 476.995 120.259 476.866 119.947C476.737 119.635 476.67 119.301 476.67 118.963C476.67 118.625 476.737 118.291 476.866 117.979C476.995 117.668 477.185 117.384 477.423 117.146L479.717 114.852C479.956 114.613 480.145 114.33 480.275 114.018C480.404 113.706 480.47 113.372 480.47 113.034C480.47 112.696 480.404 112.362 480.275 112.05C480.145 111.739 479.956 111.455 479.717 111.217L477.423 108.923C477.185 108.684 476.995 108.401 476.866 108.089C476.737 107.777 476.67 107.443 476.67 107.105C476.67 106.767 476.737 106.433 476.866 106.121C476.995 105.81 477.185 105.526 477.423 105.288L479.717 102.994C479.956 102.755 480.145 102.472 480.275 102.16C480.404 101.848 480.47 101.514 480.47 101.176C480.47 100.838 480.404 100.504 480.275 100.192C480.145 99.8805 479.956 99.5972 479.717 99.3585L477.423 97.0645C477.185 96.8259 476.995 96.5425 476.866 96.2307C476.737 95.9188 476.67 95.5846 476.67 95.247C476.67 94.9095 476.737 94.5752 476.866 94.2634C476.995 93.9515 477.185 93.6682 477.423 93.4295L479.717 91.1355C479.956 90.8969 480.145 90.6135 480.275 90.3017C480.404 89.9898 480.47 89.6556 480.47 89.318C480.47 88.9805 480.404 88.6462 480.275 88.3344C480.145 88.0225 479.956 87.7392 479.717 87.5005L477.423 85.2065C477.185 84.9679 476.995 84.6845 476.866 84.3727C476.737 84.0608 476.67 83.7266 476.67 83.389C476.67 83.0515 476.737 82.7172 476.866 82.4054C476.995 82.0935 477.185 81.8102 477.423 81.5715L479.717 79.2775C479.956 79.0389 480.145 78.7555 480.275 78.4437C480.404 78.1318 480.47 77.7976 480.47 77.46C480.47 77.1225 480.404 76.7882 480.275 76.4764C480.145 76.1645 479.956 75.8812 479.717 75.6425L477.423 73.3485C477.185 73.1099 476.995 72.8265 476.866 72.5147C476.737 72.2028 476.67 71.8686 476.67 71.531C476.67 71.1935 476.737 70.8592 476.866 70.5474C476.995 70.2355 477.185 69.9522 477.423 69.7135L479.716 67.4215Z" fill="#DCE2E2"/>
<path d="M479.551 331.863H498.721C501.143 331.863 503.465 330.901 505.177 329.188C506.889 327.476 507.851 325.154 507.851 322.733V314.05C507.851 311.628 506.889 309.306 505.177 307.594C503.465 305.881 501.143 304.92 498.721 304.92H193.437C192.665 304.922 191.896 305.023 191.149 305.221C188.873 305.028 186.59 304.928 184.306 304.92C137.835 304.92 100.163 342.592 100.163 389.063C100.163 435.534 137.835 473.206 184.306 473.206C186.59 473.197 188.873 473.097 191.149 472.905C191.896 473.101 192.665 473.202 193.437 473.206H498.72C501.142 473.206 503.464 472.244 505.176 470.531C506.888 468.819 507.85 466.497 507.85 464.076V455.393C507.85 452.971 506.888 450.649 505.176 448.937C503.464 447.224 501.142 446.263 498.72 446.263H479.55C477.129 446.263 474.807 445.301 473.094 443.588C471.382 441.876 470.42 439.554 470.42 437.133V340.994C470.421 335.951 474.509 331.863 479.551 331.863Z" fill="#CA666F"/>
<path d="M494.051 351.42C494.582 350.889 494.879 350.17 494.879 349.42C494.879 348.67 494.582 347.951 494.051 347.421L491.528 344.898C490.998 344.367 490.7 343.648 490.7 342.898C490.7 342.148 490.998 341.429 491.528 340.899L494.051 338.376C494.582 337.845 494.879 337.126 494.879 336.376C494.879 335.626 494.582 334.907 494.051 334.377L491.601 331.864H188.263C156.673 331.864 131.064 357.473 131.064 389.063C131.064 420.653 156.673 446.262 188.263 446.262H490.528L494.051 442.739C494.582 442.208 494.879 441.489 494.879 440.739C494.879 439.989 494.582 439.27 494.051 438.74L491.528 436.217C490.998 435.686 490.7 434.967 490.7 434.217C490.7 433.467 490.998 432.748 491.528 432.218L494.051 429.695C494.581 429.164 494.879 428.445 494.879 427.695C494.879 426.945 494.581 426.225 494.051 425.695L491.528 423.172C490.998 422.641 490.7 421.922 490.7 421.172C490.7 420.422 490.998 419.703 491.528 419.173L494.051 416.65C494.582 416.119 494.879 415.4 494.879 414.65C494.879 413.9 494.582 413.181 494.051 412.651L491.528 410.128C490.998 409.597 490.701 408.878 490.701 408.128C490.701 407.378 490.998 406.658 491.528 406.128L494.051 403.605C494.582 403.074 494.879 402.355 494.879 401.605C494.879 400.855 494.582 400.136 494.051 399.606L491.528 397.083C490.998 396.552 490.7 395.833 490.7 395.083C490.7 394.333 490.998 393.614 491.528 393.084L494.051 390.561C494.581 390.03 494.879 389.311 494.879 388.561C494.879 387.81 494.581 387.091 494.051 386.561L491.528 384.038C490.998 383.507 490.7 382.788 490.7 382.038C490.7 381.288 490.998 380.569 491.528 380.039L494.051 377.516C494.582 376.985 494.879 376.266 494.879 375.516C494.879 374.766 494.582 374.047 494.051 373.517L491.528 370.994C490.998 370.463 490.7 369.744 490.7 368.994C490.7 368.244 490.998 367.525 491.528 366.995L494.051 364.472C494.582 363.941 494.879 363.222 494.879 362.472C494.879 361.722 494.582 361.003 494.051 360.473L491.528 357.95C490.998 357.419 490.7 356.7 490.7 355.95C490.7 355.2 490.998 354.481 491.528 353.951L494.051 351.42Z" fill="#DCE2E2"/>
</svg>
