<svg width="201" height="201" viewBox="0 0 201 201" fill="none" xmlns="http://www.w3.org/2000/svg">
<path d="M21.5491 158.539V58.5389H179.882V158.539C179.882 167.706 172.382 175.206 163.216 175.206H38.2157C29.0491 175.206 21.5491 167.706 21.5491 158.539Z" fill="#CFD8DC"/>
<path d="M179.882 41.8722V66.8722H21.5491V41.8722C21.5491 32.7056 29.0491 25.2056 38.2157 25.2056H163.216C172.382 25.2056 179.882 32.7056 179.882 41.8722Z" fill="#EBC97A"/>
<path d="M138.216 54.3722C145.119 54.3722 150.716 48.7758 150.716 41.8722C150.716 34.9686 145.119 29.3722 138.216 29.3722C131.312 29.3722 125.716 34.9686 125.716 41.8722C125.716 48.7758 131.312 54.3722 138.216 54.3722Z" fill="#FE7E8A"/>
<path d="M63.2158 54.3722C70.1194 54.3722 75.7158 48.7758 75.7158 41.8722C75.7158 34.9686 70.1194 29.3722 63.2158 29.3722C56.3123 29.3722 50.7158 34.9686 50.7158 41.8722C50.7158 48.7758 56.3123 54.3722 63.2158 54.3722Z" fill="#FE7E8A"/>
<path d="M138.216 12.7056C133.633 12.7056 129.883 16.4556 129.883 21.0389V41.8722C129.883 46.4556 133.633 50.2056 138.216 50.2056C142.799 50.2056 146.549 46.4556 146.549 41.8722V21.0389C146.549 16.4556 142.799 12.7056 138.216 12.7056Z" fill="#B0BEC5"/>
<path d="M63.2159 12.7056C58.6326 12.7056 54.8826 16.4556 54.8826 21.0389V41.8722C54.8826 46.4556 58.6326 50.2056 63.2159 50.2056C67.7992 50.2056 71.5492 46.4556 71.5492 41.8722V21.0389C71.5492 16.4556 67.7992 12.7056 63.2159 12.7056Z" fill="#B0BEC5"/>
<path d="M54.8826 83.5389H71.5492V100.206H54.8826V83.5389Z" fill="#219988"/>
<path d="M79.8826 83.5389H96.5492V100.206H79.8826V83.5389Z" fill="#219988"/>
<path d="M104.883 83.5389H121.549V100.206H104.883V83.5389Z" fill="#219988"/>
<path d="M129.883 83.5389H146.549V100.206H129.883V83.5389Z" fill="#219988"/>
<path d="M54.8826 108.539H71.5492V125.206H54.8826V108.539Z" fill="#219988"/>
<path d="M79.8826 108.539H96.5492V125.206H79.8826V108.539Z" fill="#219988"/>
<path d="M104.883 108.539H121.549V125.206H104.883V108.539Z" fill="#219988"/>
<path d="M129.883 108.539H146.549V125.206H129.883V108.539Z" fill="#219988"/>
<path d="M54.8826 133.539H71.5492V150.206H54.8826V133.539Z" fill="#219988"/>
<path d="M79.8826 133.539H96.5492V150.206H79.8826V133.539Z" fill="#219988"/>
<path d="M104.883 133.539H121.549V150.206H104.883V133.539Z" fill="#219988"/>
<path d="M129.883 133.539H146.549V150.206H129.883V133.539Z" fill="#219988"/>
</svg>
