<svg width="432" height="498" viewBox="0 0 432 498" fill="none" xmlns="http://www.w3.org/2000/svg">
<path d="M431.144 405.138C431.144 502.738 335.144 497.138 215.944 497.138C96.7441 497.138 0.744141 501.938 0.744141 405.138C0.744141 307.538 96.7441 145.138 215.944 145.138C335.144 145.938 431.144 308.338 431.144 405.138Z" fill="#30E3CA"/>
<path d="M215.944 145.938C335.144 145.938 431.144 308.338 431.144 405.938C431.144 503.538 335.144 497.938 215.944 497.938" fill="#219988"/>
<path d="M111.144 45.1378C111.144 -2.06217 158.344 0.337833 215.944 0.337833C273.544 0.337833 320.744 -2.06217 320.744 45.1378C320.744 92.3378 273.544 171.538 215.944 171.538C158.344 171.538 111.144 92.3378 111.144 45.1378Z" fill="#30E3CA"/>
<path d="M215.944 0.337833C273.544 0.337833 320.744 -2.06217 320.744 45.1378C320.744 92.3378 273.544 171.538 215.944 171.538" fill="#219988"/>
<path d="M307.944 154.738C307.944 162.738 301.544 169.138 293.544 169.138H138.344C130.344 169.138 123.944 162.738 123.944 154.738V150.738C123.944 142.738 130.344 136.338 138.344 136.338H294.344C302.344 136.338 308.744 142.738 308.744 150.738V154.738H307.944Z" fill="#4E6582"/>
<path d="M135.944 136.138H294.344C302.344 136.138 308.744 142.538 308.744 150.538V154.538C308.744 162.538 300.744 168.938 292.744 168.938" fill="#2D4968"/>
<path d="M215.944 435.538C268.963 435.538 311.944 392.557 311.944 339.538C311.944 286.519 268.963 243.538 215.944 243.538C162.925 243.538 119.944 286.519 119.944 339.538C119.944 392.557 162.925 435.538 215.944 435.538Z" fill="#EBC97A"/>
<path d="M147.944 271.538C185.544 233.938 246.344 233.938 283.944 271.538C321.544 309.138 321.544 369.938 283.944 407.538" fill="#EBC97A"/>
<path d="M207.944 417.138V397.138C191.944 396.338 183.144 393.138 175.944 389.138L180.744 367.538C188.744 371.538 199.144 375.538 211.144 375.538C221.544 375.538 228.744 371.538 228.744 364.338C228.744 357.138 223.144 353.138 208.744 348.338C188.744 341.938 175.944 332.338 175.944 314.738C175.944 298.738 183.144 285.938 207.144 281.938V265.138H223.144V281.138C239.144 281.938 244.744 284.338 250.344 287.538L245.544 308.338C240.744 305.938 232.744 301.938 219.144 301.938C207.144 301.938 203.144 306.738 203.144 312.338C203.144 318.738 209.544 321.938 225.544 328.338C247.144 336.338 255.944 345.938 255.944 362.738C255.944 379.538 247.144 393.138 223.144 397.138V417.138H207.944Z" fill="#FFF6E1"/>
<path d="M215.944 265.138V301.938C215.944 301.938 218.344 301.938 219.944 301.938C233.544 301.938 241.544 305.938 246.344 308.338L251.144 287.538C244.744 284.338 239.944 281.138 223.944 281.138V265.138H215.944Z" fill="#FFEEBD"/>
<path d="M226.344 327.538C222.344 325.938 218.344 324.338 215.944 323.538V350.738C223.944 354.738 228.744 358.738 228.744 364.338C228.744 370.738 223.944 373.938 215.944 375.538V417.138H223.944V396.338C247.944 392.338 256.744 378.738 256.744 361.938C256.744 345.138 247.944 335.538 226.344 327.538Z" fill="#FFEEBD"/>
</svg>
