<svg width="301" height="301" viewBox="0 0 301 301" fill="none" xmlns="http://www.w3.org/2000/svg">
<path d="M279.367 78.1314C278.592 78.1314 277.8 77.9556 277.055 77.5882L214.986 46.5534C212.431 45.2761 211.397 42.1671 212.674 39.6118C213.952 37.0565 217.066 36.0271 219.616 37.2997L281.685 68.3345C284.24 69.6118 285.274 72.7208 283.997 75.2761C283.092 77.0866 281.266 78.1314 279.367 78.1314Z" fill="#30E3CA"/>
<path d="M243.171 145.372C241.629 145.372 240.103 144.684 239.084 143.376L202.877 96.8245C201.124 94.5639 201.533 91.3208 203.783 89.5677C206.038 87.7987 209.286 88.2229 211.039 90.4729L247.246 137.024C249 139.285 248.591 142.528 246.341 144.281C245.395 145.021 244.277 145.372 243.171 145.372Z" fill="#30E3CA"/>
<path d="M166.655 233.795C165.083 233.795 163.531 233.081 162.512 231.726C160.8 229.445 161.261 226.202 163.547 224.49L192.44 202.822C194.726 201.11 197.97 201.571 199.682 203.857C201.394 206.138 200.933 209.381 198.647 211.093L169.754 232.761C168.823 233.453 167.736 233.795 166.655 233.795Z" fill="#30E3CA"/>
<path d="M67.3038 253.993H31.097C28.2417 253.993 25.9243 251.681 25.9243 248.821C25.9243 245.96 28.2417 243.648 31.097 243.648H67.3038C70.1591 243.648 72.4765 245.96 72.4765 248.821C72.4759 251.681 70.1585 253.993 67.3038 253.993Z" fill="#30E3CA"/>
<path d="M137.783 151.399C136.743 151.399 135.688 151.083 134.777 150.431L90.1547 118.543C87.8321 116.883 87.2942 113.656 88.9547 111.328C90.6153 109.001 93.8479 108.468 96.17 110.128L140.793 142.016C143.115 143.677 143.653 146.904 141.993 149.231C140.985 150.649 139.397 151.399 137.783 151.399Z" fill="#30E3CA"/>
<path d="M88.3606 88.114C86.9174 88.114 85.4848 87.5192 84.4658 86.345C82.5832 84.1935 82.8053 80.9245 84.9574 79.0466L125.975 43.2019C128.121 41.3192 131.39 41.5366 133.273 43.6935C135.156 45.845 134.934 49.114 132.782 50.9919L91.7643 86.8366C90.7811 87.695 89.5658 88.114 88.3606 88.114Z" fill="#30E3CA"/>
<path d="M51.7864 72.9587C48.9312 72.9587 46.6138 70.6466 46.6138 67.786V31.5798C46.6138 28.7192 48.9312 26.4071 51.7864 26.4071C54.6417 26.4071 56.9591 28.7192 56.9591 31.5798V67.7866C56.9585 70.6466 54.6417 72.9587 51.7864 72.9587Z" fill="#30E3CA"/>
<path d="M215.369 280.709C214.608 280.709 213.838 280.543 213.108 280.186L158.141 253.471C155.571 252.225 154.499 249.126 155.752 246.556C157.003 243.985 160.091 242.919 162.667 244.166L217.634 270.881C220.205 272.128 221.276 275.226 220.024 277.797C219.13 279.638 217.288 280.709 215.369 280.709Z" fill="#30E3CA"/>
<path d="M103.511 119.51C103.511 90.9429 80.3539 67.7861 51.7865 67.7861C23.2191 67.7861 0.0622559 90.9435 0.0622559 119.51C0.0622559 138.643 10.4796 155.309 25.9244 164.257V150.622C25.9244 144.865 30.7865 140.199 36.7812 140.199H66.7917C72.7865 140.199 77.6486 144.864 77.6486 150.622V164.246C93.0986 155.314 103.511 138.643 103.511 119.51Z" fill="#219988"/>
<path d="M284.545 93.6488C293.115 93.6488 300.062 86.7014 300.062 78.1314C300.062 69.5614 293.115 62.614 284.545 62.614C275.975 62.614 269.027 69.5614 269.027 78.1314C269.027 86.7014 275.975 93.6488 284.545 93.6488Z" fill="#FE7E8A"/>
<path d="M15.5796 264.338C24.1497 264.338 31.097 257.391 31.097 248.821C31.097 240.251 24.1497 233.303 15.5796 233.303C7.00962 233.303 0.0622559 240.251 0.0622559 248.821C0.0622559 257.391 7.00962 264.338 15.5796 264.338Z" fill="#FE7E8A"/>
<path d="M227.648 300.545C236.219 300.545 243.166 293.598 243.166 285.028C243.166 276.458 236.219 269.51 227.648 269.51C219.078 269.51 212.131 276.458 212.131 285.028C212.131 293.598 219.078 300.545 227.648 300.545Z" fill="#FE7E8A"/>
<path d="M150.062 171.235C158.632 171.235 165.58 164.288 165.58 155.718C165.58 147.148 158.632 140.2 150.062 140.2C141.492 140.2 134.545 147.148 134.545 155.718C134.545 164.288 141.492 171.235 150.062 171.235Z" fill="#FE7E8A"/>
<path d="M51.7864 119.511C60.3564 119.511 67.3038 112.563 67.3038 103.993C67.3038 95.4234 60.3564 88.4761 51.7864 88.4761C43.2164 88.4761 36.269 95.4234 36.269 103.993C36.269 112.563 43.2164 119.511 51.7864 119.511Z" fill="white"/>
<path d="M66.7917 140.2H36.7812C30.7864 140.2 25.9243 144.866 25.9243 150.623V164.258C33.538 168.67 42.3517 171.235 51.7864 171.235C61.2212 171.235 70.0349 168.67 77.6485 164.258V150.623C77.6485 144.866 72.7864 140.2 66.7917 140.2Z" fill="white"/>
<path d="M227.649 52.2693C227.649 23.7019 204.492 0.545044 175.924 0.545044C147.357 0.545044 124.2 23.7019 124.2 52.2693C124.2 71.4019 134.618 88.0677 150.062 97.0156V83.3808C150.062 77.6239 154.924 72.9581 160.919 72.9581H190.93C196.924 72.9581 201.787 77.6234 201.787 83.3808V97.005C217.237 88.0724 227.649 71.4019 227.649 52.2693Z" fill="#219988"/>
<path d="M175.924 52.2693C184.494 52.2693 191.442 45.322 191.442 36.7519C191.442 28.1819 184.494 21.2346 175.924 21.2346C167.354 21.2346 160.407 28.1819 160.407 36.7519C160.407 45.322 167.354 52.2693 175.924 52.2693Z" fill="white"/>
<path d="M190.93 72.9587H160.919C154.924 72.9587 150.062 77.624 150.062 83.3814V97.0162C157.676 101.428 166.49 103.994 175.924 103.994C185.359 103.994 194.173 101.428 201.786 97.0162V83.3814C201.786 77.6246 196.924 72.9587 190.93 72.9587Z" fill="white"/>
<path d="M294.89 186.752C294.89 158.184 271.733 135.028 243.165 135.028C214.598 135.028 191.441 158.184 191.441 186.752C191.441 205.884 201.859 222.55 217.303 231.498V217.863C217.303 212.107 222.165 207.441 228.16 207.441H258.171C264.165 207.441 269.027 212.106 269.027 217.863V231.488C284.477 222.556 294.89 205.884 294.89 186.752Z" fill="#219988"/>
<path d="M243.166 186.752C251.736 186.752 258.683 179.805 258.683 171.235C258.683 162.665 251.736 155.717 243.166 155.717C234.596 155.717 227.649 162.665 227.649 171.235C227.649 179.805 234.596 186.752 243.166 186.752Z" fill="white"/>
<path d="M258.171 207.441H228.16C222.165 207.441 217.303 212.107 217.303 217.864V231.499C224.917 235.911 233.731 238.476 243.165 238.476C252.6 238.476 261.414 235.911 269.027 231.499V217.864C269.027 212.107 264.166 207.441 258.171 207.441Z" fill="white"/>
<path d="M170.752 248.821C170.752 220.253 147.595 197.097 119.027 197.097C90.4601 197.097 67.3032 220.253 67.3032 248.821C67.3032 267.953 77.7206 284.619 93.1653 293.567V279.932C93.1653 274.175 98.0274 269.51 104.022 269.51H134.033C140.027 269.51 144.89 274.175 144.89 279.932V293.557C160.34 284.624 170.752 267.953 170.752 248.821Z" fill="#219988"/>
<path d="M119.027 248.821C127.597 248.821 134.545 241.874 134.545 233.304C134.545 224.734 127.597 217.786 119.027 217.786C110.457 217.786 103.51 224.734 103.51 233.304C103.51 241.874 110.457 248.821 119.027 248.821Z" fill="white"/>
<path d="M134.033 269.51H104.022C98.0274 269.51 93.1653 274.175 93.1653 279.933V293.568C100.779 297.98 109.593 300.545 119.027 300.545C128.462 300.545 137.276 297.98 144.89 293.568V279.933C144.89 274.176 140.027 269.51 134.033 269.51Z" fill="white"/>
<path d="M51.7864 31.5798C60.3564 31.5798 67.3038 24.6324 67.3038 16.0624C67.3038 7.49241 60.3564 0.545044 51.7864 0.545044C43.2164 0.545044 36.269 7.49241 36.269 16.0624C36.269 24.6324 43.2164 31.5798 51.7864 31.5798Z" fill="#FE7E8A"/>
</svg>
