<svg width="479" height="501" viewBox="0 0 479 501" fill="none" xmlns="http://www.w3.org/2000/svg">
<g clip-path="url(#clip0)">
<path opacity="0.4" d="M465.372 344.758L264.802 228.968L7.01227 377.798L0.322266 381.918L205.762 500.528L470.462 347.698V341.828L465.372 344.758Z" fill="#D6D8E5"/>
<path d="M473.462 340.058L272.892 224.258L13.2724 374.148L8.18237 371.208V377.088L213.842 495.828L478.552 342.998V337.118L473.462 340.058Z" fill="#252935"/>
<path d="M213.842 489.948L8.18237 371.208L272.892 218.378L478.552 337.118L213.842 489.948Z" fill="#40514E"/>
<path d="M13.3223 374.148C13.9523 374.008 19.3823 370.648 19.3823 370.648V331.798L13.3223 328.298V374.148Z" fill="#40514E"/>
<path d="M213.962 483.488L18.7822 371.078V316.248L21.9122 313.678L213.962 423.528V483.488Z" fill="#E6E9EF"/>
<path d="M467.622 336.968L213.962 483.488V423.528L462.092 280.208L467.622 283.628V336.968Z" fill="#F4F6F9"/>
<path d="M473.462 288.328L272.892 172.528L13.2724 322.418L8.18237 319.478V325.358L213.842 444.098L478.552 291.268V285.398L473.462 288.328Z" fill="#252935"/>
<path d="M213.842 438.218L8.18237 319.478L272.892 166.658L478.552 285.398L213.842 438.218Z" fill="#40514E"/>
<path d="M8.18237 371.208V319.478L13.2724 322.418V379.818L8.18237 371.208Z" fill="#252935"/>
<path d="M457.232 278.668L267.162 168.928L21.1322 310.968L16.3022 308.188V313.758L211.202 426.278L462.062 281.448V275.878L457.232 278.668Z" fill="#E8A30A"/>
<path d="M211.202 420.708L16.3022 308.188L267.162 163.358L462.062 275.878L211.202 420.708Z" fill="#EBC97A"/>
<path d="M21.1323 310.968C21.7223 310.838 26.8723 307.658 26.8723 307.658V270.838L21.1323 267.528V310.968Z" fill="#EBC97A"/>
<path d="M211.312 414.588L26.3523 308.058V256.108L29.3123 253.668L211.312 357.768V414.588Z" fill="#E6E9EF"/>
<path d="M451.702 275.738L211.312 414.588V357.768L446.462 221.948L451.702 225.188V275.738Z" fill="#F4F6F9"/>
<path d="M457.232 229.648L267.162 119.908L21.1322 261.948L16.3022 259.168V264.738L211.202 377.258L462.062 232.428V226.858L457.232 229.648Z" fill="#E8A30A"/>
<path d="M211.202 371.688L16.3022 259.168L267.162 114.338L462.062 226.858L211.202 371.688Z" fill="#EBC97A"/>
<path d="M16.3022 308.188V259.168L21.1322 261.948V316.348L16.3022 308.188Z" fill="#E8A30A"/>
<path d="M447.502 216.748L265.912 111.908L30.8622 247.618L26.2522 244.958V250.278L212.452 357.778L452.112 219.408V214.088L447.502 216.748Z" fill="#AB210D"/>
<path d="M212.452 352.458L26.2522 244.958L265.912 106.588L452.112 214.088L212.452 352.458Z" fill="#FE7E8A"/>
<path d="M30.8623 247.618C31.4323 247.478 36.3523 244.448 36.3523 244.448V209.268L30.8623 206.108V247.618Z" fill="#FE7E8A"/>
<path d="M212.562 346.598L35.8523 244.838V195.198L38.6823 192.868L212.562 292.318V346.598Z" fill="#E6E9EF"/>
<path d="M442.212 213.958L212.562 346.598V292.318L437.212 162.558L442.212 165.658V213.958Z" fill="#F4F6F9"/>
<path d="M447.502 169.918L265.912 65.0778L30.8622 200.778L26.2522 198.118V203.438L212.452 310.948L452.112 172.578V167.258L447.502 169.918Z" fill="#AB210D"/>
<path d="M212.452 305.618L26.2522 198.118L265.912 59.7578L452.112 167.258L212.452 305.618Z" fill="#FF582B"/>
<path d="M26.2522 244.958V198.118L30.8622 200.778V252.748L26.2522 244.958Z" fill="#AB210D"/>
<path d="M456.782 165.818L265.602 55.4378L18.1422 198.308L13.2822 195.508V201.118L209.322 314.298L461.642 168.618V163.018L456.782 165.818Z" fill="#219988"/>
<path d="M209.322 308.688L13.2822 195.508L265.602 49.8378L461.642 163.018L209.322 308.688Z" fill="#30E3CA"/>
<path d="M18.1423 198.308C18.7323 198.178 23.9123 194.978 23.9123 194.978V157.978L18.1423 154.638V198.308Z" fill="#30E3CA"/>
<path d="M209.432 302.528L23.3923 195.388V143.118L26.3723 140.668L209.432 245.378V302.528Z" fill="#E6E9EF"/>
<path d="M451.222 162.878L209.432 302.528V245.378L445.952 108.768L451.222 112.028V162.878Z" fill="#F4F6F9"/>
<path d="M456.782 116.508L265.602 6.12777L18.1422 149.008L13.2822 146.208V151.808L209.322 264.988L461.642 119.308V113.708L456.782 116.508Z" fill="#219988"/>
<path d="M209.322 259.388L13.2822 146.208L265.602 0.527771L461.642 113.708L209.322 259.388Z" fill="#30E3CA"/>
<path d="M13.2822 195.508V146.208L18.1422 149.008V203.718L13.2822 195.508Z" fill="#219988"/>
<path opacity="0.1" d="M353.782 150.178L195.762 58.9478L212.052 49.5478L370.072 140.778L353.782 150.178Z" fill="black"/>
<path opacity="0.1" d="M302.242 149.858L196.322 88.7078L204.472 84.0078L310.392 145.158L302.242 149.858Z" fill="black"/>
<path opacity="0.1" d="M284.442 161.558L178.522 100.398L186.662 95.6978L292.582 156.848L284.442 161.558Z" fill="black"/>
<path opacity="0.1" d="M247.912 160.598L176.772 119.528L184.922 114.828L256.052 155.898L247.912 160.598Z" fill="black"/>
<path d="M102.022 113.528C103.022 111.838 111.092 110.738 113.722 117.528C114.722 120.098 114.572 126.678 115.402 130.818C116.232 134.958 118.212 137.288 118.922 140.648C119.632 144.008 118.472 149.648 110.392 150.648C102.312 151.648 96.0923 148.808 94.1823 146.228C92.2723 143.648 92.1823 138.168 94.1823 135.228C96.1823 132.288 97.6723 129.898 97.6223 126.068L102.022 113.528Z" fill="#3A2C6D"/>
<path d="M107.322 112.338C107.322 112.338 101.322 110.598 97.6222 113.858C96.4185 114.971 95.542 116.393 95.0873 117.968C94.6326 119.544 94.617 121.214 95.0422 122.798C95.5322 124.708 96.5122 127.308 98.0422 127.448C99.5722 127.588 107.322 112.338 107.322 112.338Z" fill="#3A2C6D"/>
<path d="M109.622 128.788C109.622 128.788 109.232 135.518 109.352 136.008C109.472 136.498 111.992 137.008 112.692 137.568C113.392 138.128 109.042 144.978 106.822 145.988C104.602 146.998 97.7323 144.418 97.2523 140.988C96.8123 137.848 99.2523 135.398 100.152 134.548C100.781 134.49 101.412 134.473 102.042 134.498L102.242 131.238C105.252 130.288 109.622 128.788 109.622 128.788Z" fill="#FFCEA9"/>
<path d="M89.8423 164.678C87.9424 167.312 85.6839 169.668 83.1323 171.678C82.4223 172.298 82.0623 172.958 80.8523 174.328C79.6509 175.716 78.0958 176.753 76.3523 177.328C74.8323 177.718 74.1923 177.618 73.9323 177.328C73.6723 177.038 73.8023 176.608 74.4623 176.328C75.5601 176.008 76.581 175.466 77.4623 174.738C77.4623 174.738 76.0523 175.398 75.1623 175.738C74.356 176.019 73.5147 176.187 72.6623 176.238C71.8323 176.238 70.9523 175.238 71.6123 174.978C72.2723 174.718 72.8823 174.668 74.1923 174.188C74.8995 173.942 75.5718 173.606 76.1923 173.188C75.2835 173.454 74.3534 173.641 73.4123 173.748C72.6332 173.88 71.8325 173.79 71.1023 173.488C70.7123 173.318 70.3723 172.608 71.2523 172.378C72.3944 172.261 73.5168 171.999 74.5923 171.598C75.5923 171.138 76.2623 170.648 76.0323 170.598C75.8023 170.548 75.2223 170.818 74.1923 170.738C73.1623 170.658 72.1923 170.008 72.1923 169.458C72.1923 168.908 72.4123 169.208 73.4223 169.128C74.4905 168.864 75.5769 168.68 76.6723 168.578C77.7523 168.62 78.8322 168.492 79.8723 168.198C80.9723 167.868 83.4323 164.918 85.3123 162.198C87.3673 159.181 88.9928 155.893 90.1423 152.428C91.2723 148.708 92.6223 141.738 93.5823 139.318C94.5423 136.898 96.2023 135.788 97.7823 135.738C99.6423 135.678 100.432 138.118 99.9423 140.228C98.9923 143.848 94.8723 158.068 89.8423 164.678Z" fill="#FFCEA9"/>
<path d="M110.542 136.668C112.432 136.958 114.542 137.968 114.892 138.998C115.242 140.208 115.982 145.898 114.352 150.228C112.722 154.558 110.862 162.358 109.922 164.228C105.059 164.925 100.103 163.975 95.8423 161.528C95.8423 161.528 95.4523 153.998 95.4223 151.528C89.3423 146.218 94.5423 139.678 99.6923 134.588C100.311 134.538 100.933 134.538 101.552 134.588C101.552 134.588 96.9523 140.028 100.142 143.118C106.992 140.968 108.322 137.888 110.542 136.668Z" fill="#F4F4F4"/>
<path d="M97.0624 120.458C97.7424 116.138 100.862 112.878 105.312 113.138C106.439 113.203 107.542 113.489 108.559 113.981C109.575 114.473 110.484 115.16 111.234 116.003C111.985 116.846 112.562 117.829 112.932 118.896C113.302 119.962 113.459 121.091 113.392 122.218C113.315 123.53 112.935 124.806 112.281 125.947C111.627 127.087 110.717 128.059 109.622 128.788C109.47 129.443 109.238 130.078 108.932 130.678C107.352 132.518 103.162 133.678 101.782 133.678C100.582 133.678 99.5524 132.578 98.4324 130.678C96.1024 126.878 96.6924 122.598 97.0624 120.458Z" fill="#FFCEA9"/>
<path d="M106.692 113.218C109.822 113.828 112.392 114.708 113.242 117.778C113.822 119.888 114.582 123.918 113.852 125.618L113.412 126.838L109.622 128.788C109.622 128.788 107.852 127.318 108.412 123.008C108.391 122.421 108.204 121.852 107.872 121.368C107.638 120.961 107.463 120.524 107.352 120.068C106.907 118.902 106.029 117.953 104.902 117.418C102.082 115.828 97.9023 117.198 97.3823 117.768C98.1747 116.055 99.5331 114.667 101.229 113.838C102.924 113.01 104.854 112.791 106.692 113.218Z" fill="#3A2C6D"/>
<path d="M89.4824 216.638C87.9024 217.918 85.4824 217.028 85.3324 217.148C83.7224 218.758 81.3324 220.148 79.5324 221.578C78.5324 222.348 77.0124 223.388 77.2924 224.878C77.7824 227.548 82.0524 226.718 83.6624 225.878C85.2724 225.038 86.5824 223.708 88.1124 222.768C89.1924 222.088 90.2624 221.768 90.4324 220.368C90.5324 219.528 89.7724 216.598 89.4824 216.638Z" fill="#7E9793"/>
<path d="M90.4123 219.848C90.2023 221.158 89.1523 221.518 88.0723 222.188C86.5223 223.188 85.1623 224.538 83.5523 225.358C81.9423 226.178 78.3523 226.858 77.3123 224.948C77.8823 227.518 82.0723 226.718 83.6623 225.948C85.2523 225.178 86.5823 223.778 88.1123 222.838C89.1923 222.158 90.2623 221.838 90.4323 220.438C90.4529 220.241 90.4461 220.043 90.4123 219.848Z" fill="#3A2C6D"/>
<path d="M81.7823 212.308C80.3323 213.488 78.1423 212.828 78.0423 212.938C76.3538 214.372 74.5842 215.707 72.7423 216.938C71.8423 217.648 70.4323 218.598 70.6823 219.938C71.1423 222.378 75.0523 221.628 76.5223 220.878C77.9923 220.128 79.2023 218.878 80.5923 218.028C81.5923 217.408 82.5923 217.088 82.7223 215.838C82.8223 215.138 82.0323 212.278 81.7823 212.308Z" fill="#7E9793"/>
<path d="M82.7124 215.388C82.5124 216.588 81.5524 216.928 80.5624 217.538C79.1424 218.418 77.8924 219.688 76.4224 220.438C74.9524 221.188 71.6624 221.808 70.7024 220.068C71.2224 222.418 75.0624 221.678 76.5224 220.938C77.9824 220.198 79.2024 218.938 80.5924 218.088C81.5924 217.468 82.5924 217.148 82.7224 215.898C82.7385 215.728 82.7351 215.557 82.7124 215.388Z" fill="#3A2C6D"/>
<path d="M103.682 165.888C99.3949 166.454 95.0343 165.824 91.0823 164.068C91.1523 165.398 91.2223 166.588 91.2223 166.588C86.0923 170.218 75.8023 176.318 75.1323 180.528C75.8023 193.838 77.8223 212.838 78.4023 213.108C80.0123 213.878 81.1323 213.758 81.8923 212.988C81.8923 212.988 85.1223 201.718 84.1823 185.178C84.1823 185.178 102.182 177.238 103.302 172.888C103.826 171.135 103.992 169.296 103.792 167.478C103.782 166.948 103.742 166.418 103.682 165.888Z" fill="#FFCEA9"/>
<path d="M109.642 164.158C106.082 165.818 102.822 166.028 98.8024 165.608C98.8024 167.388 99.0624 170.738 99.0624 170.738C93.9324 174.358 83.6424 180.468 82.9624 184.678C83.6424 197.978 84.8824 217.248 85.4724 217.488C86.1626 217.784 86.9184 217.893 87.6642 217.806C88.41 217.718 89.1197 217.436 89.7224 216.988C89.7224 216.988 92.9624 205.858 92.0224 189.328C92.0224 189.018 107.402 181.448 109.352 179.438C111.302 177.428 111.682 174.438 111.622 171.628C111.476 169.029 110.802 166.488 109.642 164.158Z" fill="#FFCEA9"/>
<path d="M113.412 166.978C113.412 166.978 119.092 177.048 109.622 182.228C99.6223 187.698 93.5223 188.978 93.5223 188.978L92.0223 189.328C92.495 192.802 92.495 196.324 92.0223 199.798C92.0223 199.798 84.8923 202.288 75.7923 194.278L72.7923 184.568L72.4423 181.988C72.2681 181.111 72.315 180.205 72.5786 179.352C72.8422 178.498 73.3143 177.723 73.9523 177.098C76.1423 175.098 83.0623 170.098 87.3623 167.148C91.6623 164.198 95.0523 161.528 95.0523 161.528L95.8123 160.828C95.8123 160.828 100.912 164.888 110.242 163.528C111.473 164.505 112.543 165.669 113.412 166.978Z" fill="#FE7E8A"/>
<path d="M107.772 181.928C108.639 181.143 109.558 180.418 110.522 179.758C111.541 179.235 112.475 178.56 113.292 177.758C114.162 176.888 115.452 173.228 116.122 169.658C116.743 165.676 116.676 161.617 115.922 157.658C114.743 152.918 113.15 148.29 111.162 143.828C109.892 141.158 110.612 139.528 111.762 138.348C113.122 136.958 114.532 136.988 116.142 140.718C118.411 145.941 120.088 151.402 121.142 156.998C121.791 161.06 121.737 165.204 120.982 169.248C120.308 172.793 119.211 176.245 117.712 179.528C117.302 180.528 117.232 181.308 116.652 183.238C116.1 185.169 115.092 186.938 113.712 188.398C112.482 189.548 111.852 189.768 111.512 189.618C111.172 189.468 111.112 188.988 111.612 188.398C112.473 187.527 113.174 186.512 113.682 185.398C113.682 185.398 112.682 186.738 111.962 187.478C111.347 188.146 110.648 188.731 109.882 189.218C109.132 189.668 107.942 189.138 108.432 188.528C108.922 187.918 109.432 187.588 110.432 186.468C110.965 185.872 111.428 185.218 111.812 184.518C111.098 185.228 110.325 185.877 109.502 186.458C108.868 186.968 108.101 187.288 107.292 187.378C106.872 187.378 106.292 186.888 107.002 186.218C108.008 185.523 108.928 184.71 109.742 183.798C110.502 182.798 110.892 182.028 110.652 182.048C110.412 182.068 110.002 182.658 109.022 183.108C108.042 183.558 106.922 183.408 106.722 182.868C106.522 182.328 106.882 182.528 107.772 181.928Z" fill="#FFCEA9"/>
<path d="M118.632 145.748C118.632 145.748 115.182 148.808 111.342 148.188L109.852 141.768C109.852 141.768 108.852 138.398 111.732 137.118C114.612 135.838 117.382 139.188 118.632 145.748Z" fill="#EBC97A"/>
<path d="M99.6924 134.528C99.6924 134.528 95.9624 133.398 91.9924 141.668L93.4824 142.558C93.4824 142.558 97.3824 136.658 99.6924 134.528Z" fill="#EBC97A"/>
<path d="M74.4521 171.038L86.9822 163.808C87.0913 163.744 87.2156 163.71 87.3421 163.71C87.4687 163.71 87.593 163.744 87.7021 163.808L109.702 176.498L96.8121 183.948L74.4521 171.038Z" fill="#F4F4F4"/>
<path d="M97.1123 181.078L98.1123 181.638C98.1923 181.638 98.1823 181.758 98.1123 181.808L97.2022 182.338C97.1543 182.362 97.1011 182.375 97.0472 182.375C96.9933 182.375 96.9402 182.362 96.8922 182.338L95.8922 181.788C95.8122 181.738 95.8222 181.668 95.8922 181.608L96.8122 181.088C96.8576 181.062 96.9087 181.047 96.961 181.045C97.0133 181.044 97.0652 181.055 97.1123 181.078Z" fill="#3A2C6D"/>
<path d="M95.7622 180.298L96.7622 180.848C96.8322 180.898 96.8222 180.978 96.7622 181.028L95.8521 181.558C95.8036 181.58 95.7507 181.592 95.6972 181.592C95.6436 181.592 95.5907 181.58 95.5422 181.558L94.5422 181.008C94.4622 180.958 94.4722 180.878 94.5422 180.828L95.4521 180.298C95.5001 180.273 95.5533 180.26 95.6072 180.26C95.6611 180.26 95.7142 180.273 95.7622 180.298Z" fill="#3A2C6D"/>
<path d="M94.3821 179.528L95.3821 180.078C95.4621 180.128 95.4521 180.198 95.3821 180.258L94.4721 180.778C94.4242 180.802 94.371 180.815 94.3171 180.815C94.2632 180.815 94.2101 180.802 94.1621 180.778L93.1621 180.218C93.0921 180.218 93.0921 180.098 93.1621 180.048L94.0721 179.518C94.1204 179.493 94.1742 179.481 94.2284 179.483C94.2826 179.484 94.3355 179.5 94.3821 179.528Z" fill="#3A2C6D"/>
<path d="M93.0422 178.728L94.0422 179.288C94.1222 179.288 94.1122 179.408 94.0422 179.458L93.1322 179.988C93.0842 180.012 93.0311 180.025 92.9772 180.025C92.9233 180.025 92.8702 180.012 92.8222 179.988L91.8222 179.438C91.7422 179.438 91.7522 179.318 91.8222 179.258L92.7422 178.738C92.7876 178.712 92.8386 178.697 92.8909 178.695C92.9432 178.694 92.9952 178.705 93.0422 178.728Z" fill="#3A2C6D"/>
<path d="M91.6921 177.948L92.6921 178.498C92.7621 178.548 92.7521 178.628 92.6921 178.678L91.7821 179.208C91.7335 179.23 91.6806 179.242 91.6271 179.242C91.5736 179.242 91.5207 179.23 91.4721 179.208L90.4721 178.658C90.3921 178.658 90.4021 178.528 90.4721 178.478L91.3821 177.948C91.4301 177.923 91.4832 177.91 91.5371 177.91C91.591 177.91 91.6441 177.923 91.6921 177.948Z" fill="#3A2C6D"/>
<path d="M90.3222 177.168L91.3222 177.718C91.4022 177.718 91.3922 177.838 91.3222 177.898L90.4022 178.418C90.356 178.442 90.3045 178.455 90.2522 178.455C90.1999 178.455 90.1484 178.442 90.1022 178.418L89.1022 177.858C89.0222 177.858 89.0322 177.738 89.1022 177.688L90.0122 177.158C90.061 177.135 90.1145 177.124 90.1684 177.125C90.2223 177.127 90.275 177.142 90.3222 177.168Z" fill="#3A2C6D"/>
<path d="M88.9721 176.378L89.9721 176.938C90.0521 176.938 90.0421 177.058 89.9721 177.108L89.0621 177.638C89.0141 177.662 88.961 177.675 88.9071 177.675C88.8532 177.675 88.8001 177.662 88.7521 177.638L87.7521 177.088C87.6721 177.088 87.6821 176.968 87.7521 176.908L88.6721 176.388C88.7175 176.362 88.7686 176.347 88.8209 176.345C88.8732 176.344 88.9251 176.355 88.9721 176.378Z" fill="#3A2C6D"/>
<path d="M87.6221 175.598L88.6221 176.148C88.7021 176.148 88.6921 176.278 88.6221 176.328L87.7121 176.858C87.6635 176.88 87.6106 176.892 87.5571 176.892C87.5036 176.892 87.4507 176.88 87.4021 176.858L86.4021 176.308C86.3321 176.308 86.3421 176.178 86.4021 176.128L87.3121 175.598C87.3601 175.573 87.4132 175.56 87.4671 175.56C87.521 175.56 87.5741 175.573 87.6221 175.598Z" fill="#3A2C6D"/>
<path d="M86.2622 174.818L87.2622 175.368C87.3422 175.368 87.3322 175.488 87.2622 175.548L86.3421 176.068C86.2959 176.092 86.2445 176.105 86.1922 176.105C86.1399 176.105 86.0884 176.092 86.0422 176.068L85.0422 175.508C84.9622 175.508 84.9722 175.388 85.0422 175.338L85.9521 174.808C86.0009 174.785 86.0545 174.774 86.1084 174.775C86.1623 174.777 86.215 174.792 86.2622 174.818Z" fill="#3A2C6D"/>
<path d="M84.9023 174.028L85.9023 174.588C85.9823 174.588 85.9723 174.708 85.9023 174.758L84.9823 175.288C84.9361 175.312 84.8846 175.325 84.8323 175.325C84.78 175.325 84.7285 175.312 84.6823 175.288L83.6823 174.738C83.6023 174.688 83.6123 174.618 83.6823 174.558L84.6023 174.038C84.6477 174.012 84.6987 173.997 84.751 173.995C84.8033 173.994 84.8553 174.005 84.9023 174.028Z" fill="#3A2C6D"/>
<path d="M83.5523 173.248L84.5523 173.798C84.6323 173.798 84.6223 173.928 84.5523 173.978L83.6423 174.508C83.5937 174.53 83.5408 174.542 83.4873 174.542C83.4337 174.542 83.3809 174.53 83.3323 174.508L82.3323 173.958C82.2623 173.908 82.2723 173.828 82.3323 173.778L83.2423 173.248C83.2902 173.223 83.3434 173.21 83.3973 173.21C83.4512 173.21 83.5043 173.223 83.5523 173.248Z" fill="#3A2C6D"/>
<path d="M82.1921 172.468L83.1921 173.018C83.2721 173.018 83.2621 173.138 83.1921 173.198L82.2721 173.718C82.2259 173.742 82.1744 173.755 82.1221 173.755C82.0698 173.755 82.0183 173.742 81.9721 173.718L80.9721 173.158C80.8921 173.158 80.9021 173.038 80.9721 172.988L81.8821 172.458C81.9308 172.435 81.9844 172.424 82.0383 172.425C82.0922 172.427 82.1449 172.442 82.1921 172.468Z" fill="#3A2C6D"/>
<path d="M80.8322 171.678L81.8322 172.238C81.9122 172.238 81.9022 172.358 81.8322 172.408L80.9122 172.938C80.866 172.962 80.8145 172.975 80.7622 172.975C80.7099 172.975 80.6584 172.962 80.6122 172.938L79.6122 172.388C79.5322 172.338 79.5422 172.268 79.6122 172.208L80.5322 171.688C80.5776 171.662 80.6287 171.647 80.681 171.645C80.7333 171.644 80.7852 171.655 80.8322 171.678Z" fill="#3A2C6D"/>
<path d="M78.8222 170.528L80.4322 171.458C80.5122 171.508 80.5022 171.588 80.4322 171.638L79.5222 172.168C79.4736 172.19 79.4207 172.202 79.3672 172.202C79.3137 172.202 79.2608 172.19 79.2122 172.168L77.6022 171.238C77.5222 171.188 77.5322 171.118 77.6022 171.058L78.5222 170.528C78.5691 170.506 78.6203 170.494 78.6722 170.494C78.7241 170.494 78.7753 170.506 78.8222 170.528Z" fill="#3A2C6D"/>
<path d="M96.4221 179.158L97.4221 179.718C97.5021 179.718 97.4921 179.838 97.4221 179.888L96.5121 180.418C96.4642 180.442 96.411 180.455 96.3571 180.455C96.3032 180.455 96.2501 180.442 96.2021 180.418L95.2021 179.868C95.1321 179.868 95.1421 179.738 95.2021 179.688L96.1121 179.158C96.1607 179.135 96.2136 179.124 96.2671 179.124C96.3207 179.124 96.3735 179.135 96.4221 179.158Z" fill="#3A2C6D"/>
<path d="M95.0622 178.378L96.0622 178.928C96.1322 178.928 96.1222 179.048 96.0622 179.108L95.1522 179.628C95.1042 179.652 95.0511 179.665 94.9972 179.665C94.9433 179.665 94.8902 179.652 94.8422 179.628L93.8422 179.068C93.7622 179.068 93.7722 178.948 93.8422 178.898L94.7522 178.368C94.801 178.345 94.8545 178.334 94.9084 178.335C94.9623 178.337 95.015 178.352 95.0622 178.378Z" fill="#3A2C6D"/>
<path d="M93.7021 177.588L94.7021 178.148C94.7721 178.148 94.7621 178.268 94.7021 178.318L93.7921 178.848C93.7441 178.872 93.691 178.885 93.6371 178.885C93.5832 178.885 93.5301 178.872 93.4821 178.848L92.4821 178.298C92.4021 178.248 92.4121 178.178 92.4821 178.118L93.3921 177.588C93.4407 177.565 93.4936 177.554 93.5471 177.554C93.6006 177.554 93.6535 177.565 93.7021 177.588Z" fill="#3A2C6D"/>
<path d="M92.3222 176.808L93.3222 177.358C93.4022 177.358 93.3922 177.478 93.3222 177.538L92.4022 178.068C92.3553 178.09 92.3041 178.102 92.2522 178.102C92.2003 178.102 92.1491 178.09 92.1022 178.068L91.1022 177.508C91.0222 177.508 91.0322 177.388 91.1022 177.338L92.0122 176.808C92.0602 176.783 92.1133 176.77 92.1672 176.77C92.2211 176.77 92.2742 176.783 92.3222 176.808Z" fill="#3A2C6D"/>
<path d="M90.9921 176.028L91.9921 176.578C92.0721 176.578 92.0621 176.708 91.9921 176.758L91.0721 177.288C91.0253 177.31 90.974 177.322 90.9221 177.322C90.8702 177.322 90.819 177.31 90.7721 177.288L89.7721 176.738C89.6921 176.688 89.7021 176.608 89.7721 176.558L90.6921 176.028C90.7383 176.003 90.7898 175.99 90.8421 175.99C90.8944 175.99 90.9459 176.003 90.9921 176.028Z" fill="#3A2C6D"/>
<path d="M89.6323 175.238L90.6323 175.798C90.7123 175.798 90.7023 175.918 90.6323 175.968L89.7123 176.498C89.6661 176.522 89.6146 176.535 89.5623 176.535C89.51 176.535 89.4585 176.522 89.4123 176.498L88.4123 175.948C88.3323 175.948 88.3423 175.828 88.4123 175.778L89.3323 175.248C89.3784 175.224 89.4293 175.211 89.4811 175.209C89.533 175.207 89.5847 175.217 89.6323 175.238Z" fill="#3A2C6D"/>
<path d="M88.3222 174.458L89.3222 175.008C89.4022 175.058 89.3922 175.138 89.3222 175.188L88.4022 175.718C88.356 175.742 88.3045 175.755 88.2522 175.755C88.1999 175.755 88.1484 175.742 88.1022 175.718L87.1022 175.168C87.0222 175.118 87.0322 175.038 87.1022 174.988L88.0222 174.458C88.0684 174.433 88.1199 174.42 88.1722 174.42C88.2245 174.42 88.276 174.433 88.3222 174.458Z" fill="#3A2C6D"/>
<path d="M86.9123 173.678L87.9123 174.228C87.9923 174.228 87.9823 174.348 87.9123 174.398L87.0023 174.928C86.9535 174.95 86.9007 174.961 86.8473 174.961C86.7939 174.961 86.7411 174.95 86.6923 174.928L85.6923 174.368C85.6123 174.368 85.6223 174.248 85.6923 174.198L86.6123 173.668C86.6593 173.645 86.7112 173.634 86.7635 173.635C86.8158 173.637 86.8669 173.652 86.9123 173.678Z" fill="#3A2C6D"/>
<path d="M85.5522 172.888L86.5522 173.438C86.6322 173.488 86.6222 173.568 86.5522 173.618L85.6422 174.148C85.5942 174.172 85.5411 174.185 85.4872 174.185C85.4333 174.185 85.3802 174.172 85.3322 174.148L84.3322 173.598C84.2522 173.548 84.2622 173.468 84.3322 173.418L85.2522 172.888C85.2991 172.866 85.3503 172.854 85.4022 172.854C85.4541 172.854 85.5053 172.866 85.5522 172.888Z" fill="#3A2C6D"/>
<path d="M84.2022 172.108L85.2022 172.658C85.2822 172.658 85.2722 172.778 85.2022 172.838L84.2922 173.358C84.2442 173.382 84.1911 173.395 84.1372 173.395C84.0833 173.395 84.0301 173.382 83.9822 173.358L82.9822 172.798C82.9122 172.798 82.9222 172.678 82.9822 172.628L83.8922 172.098C83.9409 172.075 83.9945 172.064 84.0484 172.065C84.1023 172.067 84.155 172.082 84.2022 172.108Z" fill="#3A2C6D"/>
<path d="M82.8423 171.318L83.8423 171.868C83.9223 171.868 83.9123 171.998 83.8423 172.048L82.9323 172.578C82.8843 172.602 82.8312 172.615 82.7773 172.615C82.7234 172.615 82.6703 172.602 82.6223 172.578L81.6223 172.028C81.5523 172.028 81.5623 171.898 81.6223 171.848L82.5323 171.318C82.5809 171.295 82.6338 171.284 82.6873 171.284C82.7408 171.284 82.7937 171.295 82.8423 171.318Z" fill="#3A2C6D"/>
<path d="M81.4821 170.528L82.4821 171.078C82.5521 171.078 82.5421 171.198 82.4821 171.258L81.5721 171.778C81.5241 171.802 81.471 171.815 81.4171 171.815C81.3632 171.815 81.3101 171.802 81.2621 171.778L80.2621 171.218C80.1821 171.218 80.1921 171.098 80.2621 171.048L81.1721 170.518C81.2209 170.495 81.2744 170.484 81.3283 170.485C81.3822 170.487 81.4349 170.502 81.4821 170.528Z" fill="#3A2C6D"/>
<path d="M97.7822 179.948L99.3922 180.878C99.4722 180.878 99.4622 180.998 99.3922 181.048L98.4722 181.578C98.426 181.602 98.3745 181.615 98.3222 181.615C98.2699 181.615 98.2184 181.602 98.1722 181.578L96.5522 180.648C96.4822 180.648 96.4922 180.528 96.5522 180.478L97.4622 179.948C97.5115 179.922 97.5664 179.908 97.6222 179.908C97.678 179.908 97.733 179.922 97.7822 179.948Z" fill="#3A2C6D"/>
<path d="M78.8921 170.468L79.8921 171.028C79.9355 171.05 79.9835 171.061 80.0321 171.061C80.0807 171.061 80.1287 171.05 80.1721 171.028L81.1721 170.478C81.2521 170.428 81.2521 170.358 81.1721 170.308H81.0921C81.0768 170.302 81.0636 170.292 81.0543 170.278C81.0449 170.265 81.0399 170.249 81.0399 170.233C81.0399 170.216 81.0449 170.2 81.0543 170.187C81.0636 170.174 81.0768 170.163 81.0921 170.158L82.0921 169.568C82.1721 169.518 82.1721 169.448 82.0921 169.398L81.4821 169.048C81.4363 169.028 81.3869 169.018 81.3371 169.018C81.2873 169.018 81.238 169.028 81.1921 169.048L80.1921 169.598L79.9921 169.718L79.8521 169.798L79.7021 169.878L78.8821 170.358C78.8693 170.374 78.8632 170.394 78.8651 170.415C78.8669 170.435 78.8766 170.454 78.8921 170.468Z" fill="#3A2C6D"/>
<path d="M102.372 178.038L103.372 178.598C103.452 178.598 103.442 178.718 103.372 178.768L102.452 179.298C102.406 179.322 102.355 179.335 102.302 179.335C102.25 179.335 102.198 179.322 102.152 179.298L101.152 178.748C101.072 178.748 101.082 178.628 101.152 178.568L102.062 178.048C102.109 178.022 102.162 178.007 102.216 178.005C102.27 178.004 102.323 178.015 102.372 178.038Z" fill="#3A2C6D"/>
<path d="M101.022 177.258L102.022 177.808C102.102 177.858 102.092 177.938 102.022 177.988L101.112 178.518C101.064 178.542 101.011 178.555 100.957 178.555C100.903 178.555 100.85 178.542 100.802 178.518L99.8022 177.968C99.7322 177.968 99.7422 177.838 99.8022 177.788L100.712 177.258C100.761 177.235 100.814 177.224 100.867 177.224C100.921 177.224 100.974 177.235 101.022 177.258Z" fill="#3A2C6D"/>
<path d="M99.6623 176.528L100.662 177.078C100.742 177.128 100.732 177.208 100.662 177.258L99.7423 177.788C99.6961 177.812 99.6446 177.825 99.5923 177.825C99.54 177.825 99.4885 177.812 99.4423 177.788L98.4423 177.238C98.3623 177.238 98.3723 177.108 98.4423 177.058L99.3223 176.528C99.3743 176.499 99.4328 176.484 99.4923 176.484C99.5518 176.484 99.6103 176.499 99.6623 176.528Z" fill="#3A2C6D"/>
<path d="M88.1423 169.828L89.1423 170.378C89.2223 170.428 89.2123 170.508 89.1423 170.558L88.2223 171.088C88.1754 171.11 88.1242 171.122 88.0723 171.122C88.0204 171.122 87.9692 171.11 87.9223 171.088L86.9223 170.538C86.8423 170.488 86.8523 170.408 86.9223 170.358L87.8423 169.828C87.8885 169.803 87.94 169.79 87.9923 169.79C88.0446 169.79 88.0961 169.803 88.1423 169.828Z" fill="#3A2C6D"/>
<path d="M86.7922 169.048L87.7922 169.598C87.8622 169.648 87.8622 169.718 87.7922 169.778L86.8822 170.298C86.836 170.322 86.7845 170.335 86.7322 170.335C86.6799 170.335 86.6284 170.322 86.5822 170.298L85.5822 169.738C85.5022 169.738 85.5122 169.618 85.5822 169.568L86.4922 169.038C86.5396 169.016 86.5913 169.006 86.6434 169.008C86.6954 169.01 86.7463 169.023 86.7922 169.048Z" fill="#3A2C6D"/>
<path d="M85.4421 168.268L86.3921 168.818C86.4721 168.818 86.4621 168.938 86.3921 168.998L85.4821 169.518C85.4341 169.542 85.381 169.555 85.3271 169.555C85.2732 169.555 85.2201 169.542 85.1721 169.518L84.1721 168.958C84.1021 168.958 84.1121 168.838 84.1721 168.788L85.0821 168.258C85.137 168.226 85.1999 168.209 85.2635 168.211C85.3272 168.213 85.3891 168.233 85.4421 168.268Z" fill="#3A2C6D"/>
<path d="M84.0822 167.528L85.0822 168.078C85.1622 168.078 85.1522 168.198 85.0822 168.248L84.1622 168.778C84.1153 168.8 84.0641 168.812 84.0122 168.812C83.9603 168.812 83.9091 168.8 83.8622 168.778L82.8622 168.218C82.7822 168.218 82.7922 168.098 82.8622 168.048L83.7822 167.518C83.8292 167.495 83.8812 167.484 83.9335 167.485C83.9858 167.487 84.0368 167.502 84.0822 167.528Z" fill="#3A2C6D"/>
<path d="M97.9621 175.528L99.2721 176.278C99.3521 176.328 99.3421 176.408 99.2721 176.458L98.3521 176.988C98.3052 177.01 98.254 177.022 98.2021 177.022C98.1502 177.022 98.099 177.01 98.0521 176.988L96.7421 176.238C96.6621 176.188 96.6721 176.108 96.7421 176.058L97.6621 175.528C97.7083 175.503 97.7598 175.49 97.8121 175.49C97.8644 175.49 97.9159 175.503 97.9621 175.528Z" fill="#3A2C6D"/>
<path d="M89.4921 170.608L90.8021 171.358C90.8821 171.358 90.8721 171.488 90.8021 171.538L89.8821 172.068C89.8359 172.092 89.7844 172.105 89.7321 172.105C89.6798 172.105 89.6283 172.092 89.5821 172.068L88.2721 171.318C88.1921 171.268 88.2021 171.188 88.2721 171.138L89.1921 170.608C89.2383 170.583 89.2898 170.57 89.3421 170.57C89.3944 170.57 89.4459 170.583 89.4921 170.608Z" fill="#3A2C6D"/>
<path d="M91.2022 171.588L97.5722 175.268C97.6522 175.268 97.6422 175.388 97.5722 175.448L96.6622 175.968C96.616 175.992 96.5645 176.005 96.5122 176.005C96.4599 176.005 96.4084 175.992 96.3622 175.968L89.9822 172.288C89.9122 172.238 89.9222 172.158 89.9822 172.108L90.8922 171.578C90.9415 171.557 90.9947 171.547 91.0483 171.549C91.1018 171.55 91.1543 171.564 91.2022 171.588Z" fill="#3A2C6D"/>
<path d="M97.3222 178.188L98.3222 178.738C98.4022 178.738 98.3922 178.868 98.3222 178.918L97.4022 179.448C97.3553 179.47 97.3041 179.482 97.2522 179.482C97.2003 179.482 97.1491 179.47 97.1022 179.448L96.1022 178.898C96.0222 178.898 96.0322 178.768 96.1022 178.718L97.0222 178.188C97.0684 178.163 97.1199 178.15 97.1722 178.15C97.2245 178.15 97.276 178.163 97.3222 178.188Z" fill="#3A2C6D"/>
<path d="M96.0122 177.408L97.0122 177.958C97.0822 177.958 97.0722 178.078 97.0122 178.138L96.1021 178.658C96.0542 178.682 96.0011 178.695 95.9472 178.695C95.8933 178.695 95.8401 178.682 95.7922 178.658L94.7922 178.098C94.7122 178.098 94.7222 177.978 94.7922 177.928L95.7021 177.398C95.7509 177.375 95.8045 177.364 95.8584 177.365C95.9123 177.367 95.965 177.382 96.0122 177.408Z" fill="#3A2C6D"/>
<path d="M94.6523 176.618L95.6523 177.178C95.7323 177.178 95.7223 177.298 95.6523 177.348L94.7323 177.878C94.6861 177.902 94.6346 177.915 94.5823 177.915C94.53 177.915 94.4785 177.902 94.4323 177.878L93.4323 177.328C93.3523 177.328 93.3623 177.208 93.4323 177.158L94.3523 176.628C94.3977 176.602 94.4487 176.587 94.501 176.585C94.5533 176.584 94.6053 176.595 94.6523 176.618Z" fill="#3A2C6D"/>
<path d="M93.3223 175.838L94.3223 176.398C94.4023 176.398 94.3923 176.518 94.3223 176.568L93.4123 177.098C93.3643 177.122 93.3112 177.135 93.2573 177.135C93.2034 177.135 93.1503 177.122 93.1023 177.098L92.1023 176.548C92.0323 176.498 92.0423 176.418 92.1023 176.368L93.0123 175.838C93.0609 175.815 93.1138 175.804 93.1673 175.804C93.2208 175.804 93.2737 175.815 93.3223 175.838Z" fill="#3A2C6D"/>
<path d="M91.9421 175.058L92.9421 175.608C93.0221 175.608 93.0121 175.738 92.9421 175.788L92.0221 176.318C91.9752 176.34 91.924 176.352 91.8721 176.352C91.8202 176.352 91.769 176.34 91.7221 176.318L90.7221 175.768C90.6421 175.718 90.6521 175.638 90.7221 175.588L91.6421 175.058C91.6883 175.033 91.7398 175.02 91.7921 175.02C91.8444 175.02 91.8959 175.033 91.9421 175.058Z" fill="#3A2C6D"/>
<path d="M90.5923 174.278L91.5923 174.828C91.6723 174.828 91.6623 174.948 91.5923 175.008L90.6823 175.528C90.6343 175.552 90.5812 175.565 90.5273 175.565C90.4734 175.565 90.4203 175.552 90.3723 175.528L89.3723 174.968C89.3023 174.968 89.3123 174.848 89.3723 174.798L90.2823 174.268C90.3311 174.245 90.3846 174.234 90.4385 174.235C90.4924 174.237 90.5451 174.252 90.5923 174.278Z" fill="#3A2C6D"/>
<path d="M89.2321 173.528L90.2321 174.088C90.3121 174.088 90.3021 174.208 90.2321 174.258L89.3121 174.788C89.2659 174.812 89.2144 174.825 89.1621 174.825C89.1098 174.825 89.0583 174.812 89.0121 174.788L88.0121 174.238C87.9321 174.238 87.9421 174.118 88.0121 174.068L88.9321 173.538C88.9783 173.514 89.0291 173.501 89.081 173.499C89.1329 173.497 89.1845 173.507 89.2321 173.528Z" fill="#3A2C6D"/>
<path d="M87.8821 172.708L88.8821 173.268C88.9621 173.268 88.9521 173.388 88.8821 173.438L87.9721 173.968C87.9241 173.992 87.871 174.005 87.8171 174.005C87.7632 174.005 87.7101 173.992 87.6621 173.968L86.6621 173.418C86.5921 173.368 86.6021 173.288 86.6621 173.238L87.5721 172.708C87.6207 172.685 87.6736 172.674 87.7271 172.674C87.7806 172.674 87.8335 172.685 87.8821 172.708Z" fill="#3A2C6D"/>
<path d="M86.5222 171.928L87.5222 172.478C87.6022 172.528 87.5922 172.608 87.5222 172.658L86.6022 173.188C86.5553 173.21 86.504 173.222 86.4522 173.222C86.4003 173.222 86.349 173.21 86.3022 173.188L85.3022 172.638C85.2222 172.588 85.2322 172.508 85.3022 172.458L86.2222 171.928C86.2684 171.903 86.3199 171.89 86.3722 171.89C86.4245 171.89 86.476 171.903 86.5222 171.928Z" fill="#3A2C6D"/>
<path d="M85.1621 171.148L86.1621 171.698C86.2421 171.748 86.2321 171.818 86.1621 171.878L85.2521 172.398C85.2042 172.422 85.151 172.435 85.0971 172.435C85.0432 172.435 84.9901 172.422 84.9421 172.398L83.9421 171.838C83.8721 171.838 83.8721 171.718 83.9421 171.668L84.8521 171.138C84.9004 171.113 84.9542 171.101 85.0084 171.103C85.0627 171.104 85.1156 171.12 85.1621 171.148Z" fill="#3A2C6D"/>
<path d="M83.8122 170.358L84.8122 170.918C84.8922 170.918 84.8822 171.038 84.8122 171.088L83.8922 171.618C83.846 171.642 83.7945 171.655 83.7422 171.655C83.6899 171.655 83.6384 171.642 83.5922 171.618L82.5922 171.068C82.5122 171.068 82.5222 170.948 82.5922 170.898L83.5022 170.368C83.5503 170.344 83.6027 170.331 83.6561 170.33C83.7096 170.328 83.7627 170.338 83.8122 170.358Z" fill="#3A2C6D"/>
<path d="M82.4521 169.578L83.4521 170.138C83.5321 170.138 83.5221 170.258 83.4521 170.308L82.5421 170.838C82.4941 170.862 82.441 170.875 82.3871 170.875C82.3332 170.875 82.2801 170.862 82.2321 170.838L81.2321 170.288C81.1521 170.238 81.1621 170.168 81.2321 170.108L82.1521 169.578C82.199 169.556 82.2502 169.544 82.3021 169.544C82.354 169.544 82.4052 169.556 82.4521 169.578Z" fill="#3A2C6D"/>
<path d="M98.7221 178.968L100.722 180.118C100.802 180.118 100.792 180.238 100.722 180.288L99.8021 180.818C99.7559 180.842 99.7044 180.855 99.6521 180.855C99.5998 180.855 99.5483 180.842 99.5021 180.818L97.5021 179.678C97.4221 179.678 97.4321 179.548 97.5021 179.498L98.4121 178.968C98.4607 178.945 98.5136 178.934 98.5671 178.934C98.6206 178.934 98.6735 178.945 98.7221 178.968Z" fill="#3A2C6D"/>
<path d="M99.3222 177.818L100.322 178.368C100.402 178.368 100.392 178.498 100.322 178.548L99.4022 179.078C99.3553 179.1 99.3041 179.112 99.2522 179.112C99.2003 179.112 99.1491 179.1 99.1022 179.078L98.1022 178.528C98.0222 178.528 98.0322 178.398 98.1022 178.348L99.0122 177.818C99.0602 177.793 99.1133 177.78 99.1672 177.78C99.2211 177.78 99.2742 177.793 99.3222 177.818Z" fill="#3A2C6D"/>
<path d="M97.9922 177.038L98.9922 177.588C99.0722 177.588 99.0622 177.708 98.9922 177.768L98.0822 178.288C98.0342 178.312 97.9811 178.325 97.9272 178.325C97.8733 178.325 97.8202 178.312 97.7722 178.288L96.7722 177.728C96.7022 177.728 96.7122 177.608 96.7722 177.558L97.6822 177.028C97.7305 177.003 97.7843 176.991 97.8385 176.993C97.8927 176.994 97.9456 177.01 97.9922 177.038Z" fill="#3A2C6D"/>
<path d="M96.6423 176.248L97.6423 176.808C97.7223 176.808 97.7123 176.928 97.6423 176.978L96.7223 177.508C96.6761 177.532 96.6246 177.545 96.5723 177.545C96.52 177.545 96.4685 177.532 96.4223 177.508L95.4223 176.958C95.3423 176.958 95.3523 176.838 95.4223 176.778L96.3323 176.258C96.3795 176.232 96.4322 176.217 96.4861 176.215C96.54 176.214 96.5935 176.225 96.6423 176.248Z" fill="#3A2C6D"/>
<path d="M95.3223 175.468L96.3223 176.018C96.4023 176.018 96.3923 176.148 96.3223 176.198L95.4123 176.728C95.3643 176.752 95.3112 176.765 95.2573 176.765C95.2034 176.765 95.1503 176.752 95.1023 176.728L94.1023 176.178C94.0323 176.178 94.0323 176.048 94.1023 175.998L95.0123 175.468C95.0605 175.444 95.1135 175.432 95.1673 175.432C95.2211 175.432 95.2741 175.444 95.3223 175.468Z" fill="#3A2C6D"/>
<path d="M93.9321 174.688L94.9321 175.238C95.0121 175.238 95.0021 175.368 94.9321 175.418L94.0121 175.948C93.9652 175.97 93.914 175.982 93.8621 175.982C93.8102 175.982 93.759 175.97 93.7121 175.948L92.7121 175.398C92.6321 175.398 92.6421 175.268 92.7121 175.218L93.6221 174.688C93.6701 174.663 93.7232 174.65 93.7771 174.65C93.831 174.65 93.8841 174.663 93.9321 174.688Z" fill="#3A2C6D"/>
<path d="M92.5723 173.908L93.5723 174.458C93.6523 174.458 93.6423 174.578 93.5723 174.638L92.6623 175.158C92.6143 175.182 92.5612 175.195 92.5073 175.195C92.4534 175.195 92.4003 175.182 92.3523 175.158L91.3523 174.598C91.2823 174.598 91.2823 174.478 91.3523 174.428L92.2623 173.898C92.3106 173.873 92.3644 173.861 92.4186 173.863C92.4728 173.864 92.5257 173.88 92.5723 173.908Z" fill="#3A2C6D"/>
<path d="M91.2221 173.118L92.2221 173.678C92.3021 173.678 92.2921 173.798 92.2221 173.848L91.3021 174.378C91.2559 174.402 91.2044 174.415 91.1521 174.415C91.0998 174.415 91.0483 174.402 91.0021 174.378L90.0021 173.828C89.9221 173.828 89.9321 173.708 90.0021 173.658L90.9121 173.128C90.9602 173.104 91.0126 173.091 91.066 173.09C91.1195 173.088 91.1726 173.098 91.2221 173.118Z" fill="#3A2C6D"/>
<path d="M89.8621 172.338L90.8621 172.898C90.9421 172.898 90.9321 173.018 90.8621 173.068L89.9521 173.598C89.9041 173.622 89.851 173.635 89.7971 173.635C89.7432 173.635 89.6901 173.622 89.6421 173.598L88.6421 173.048C88.5721 172.998 88.5721 172.918 88.6421 172.868L89.5521 172.338C89.6003 172.314 89.6533 172.302 89.7071 172.302C89.7609 172.302 89.8139 172.314 89.8621 172.338Z" fill="#3A2C6D"/>
<path d="M88.5122 171.528L89.5122 172.078C89.5922 172.078 89.5822 172.208 89.5122 172.258L88.5921 172.788C88.5459 172.812 88.4945 172.825 88.4422 172.825C88.3899 172.825 88.3384 172.812 88.2922 172.788L87.2922 172.238C87.2122 172.188 87.2222 172.108 87.2922 172.058L88.2021 171.528C88.2501 171.503 88.3033 171.49 88.3572 171.49C88.4111 171.49 88.4642 171.503 88.5122 171.528Z" fill="#3A2C6D"/>
<path d="M87.1521 170.778L88.1521 171.328C88.2321 171.328 88.2221 171.448 88.1521 171.508L87.2421 172.038C87.1935 172.06 87.1407 172.072 87.0871 172.072C87.0336 172.072 86.9807 172.06 86.9321 172.038L85.9321 171.478C85.8621 171.478 85.8621 171.358 85.9321 171.308L86.8421 170.778C86.8896 170.752 86.9429 170.738 86.9971 170.738C87.0514 170.738 87.1047 170.752 87.1521 170.778Z" fill="#3A2C6D"/>
<path d="M85.8022 169.998L86.8022 170.548C86.8822 170.548 86.8722 170.668 86.8022 170.718L85.8822 171.248C85.8351 171.269 85.784 171.28 85.7322 171.28C85.6804 171.28 85.6293 171.269 85.5822 171.248L84.5822 170.688C84.5022 170.688 84.5122 170.568 84.5822 170.518L85.4922 169.988C85.5409 169.965 85.5945 169.954 85.6484 169.955C85.7023 169.957 85.755 169.972 85.8022 169.998Z" fill="#3A2C6D"/>
<path d="M82.7722 168.238L85.4022 169.768C85.4822 169.768 85.4722 169.888 85.4022 169.938L84.4922 170.468C84.4442 170.492 84.3911 170.505 84.3372 170.505C84.2833 170.505 84.2301 170.492 84.1822 170.468L81.5522 168.948C81.4722 168.948 81.4822 168.828 81.5522 168.778L82.4622 168.248C82.5102 168.224 82.5627 168.211 82.6161 168.21C82.6695 168.208 82.7227 168.218 82.7722 168.238Z" fill="#3A2C6D"/>
<path d="M100.712 178.598L102.012 179.358C102.092 179.358 102.082 179.478 102.012 179.528L101.102 180.058C101.054 180.082 101.001 180.095 100.947 180.095C100.893 180.095 100.84 180.082 100.792 180.058L99.4822 179.308C99.4122 179.308 99.4222 179.178 99.4822 179.128L100.392 178.598C100.442 178.574 100.497 178.561 100.552 178.561C100.608 178.561 100.662 178.574 100.712 178.598Z" fill="#3A2C6D"/>
<path d="M77.4623 171.308L96.7123 182.418C96.7823 182.418 96.7723 182.538 96.7123 182.598L96.2623 182.858C96.2143 182.882 96.1612 182.895 96.1073 182.895C96.0534 182.895 96.0003 182.882 95.9523 182.858L76.6823 171.758C76.6023 171.758 76.6123 171.638 76.6823 171.578L77.1423 171.318C77.1901 171.288 77.2448 171.272 77.3009 171.27C77.3571 171.268 77.4128 171.281 77.4623 171.308Z" fill="#3A2C6D"/>
<path d="M100.232 172.038L100.102 172.108L96.7922 174.018L90.9022 170.618L90.7722 170.548L94.2122 168.568L100.232 172.038Z" fill="#BFBFBF"/>
<path d="M100.102 172.108L96.7921 174.018L90.9021 170.618L94.2121 168.708L100.102 172.108Z" fill="#E5E5E5"/>
<path d="M109.682 176.528V176.828C109.675 177.032 109.617 177.231 109.512 177.406C109.407 177.581 109.259 177.726 109.082 177.828L97.3922 184.578C97.2097 184.683 97.0028 184.739 96.7922 184.739C96.5815 184.739 96.3746 184.683 96.1922 184.578L75.0522 172.378C74.8702 172.269 74.7193 172.116 74.6142 171.932C74.5091 171.748 74.4533 171.54 74.4521 171.328V171.028L96.7922 183.928L109.682 176.528Z" fill="#E5E5E5"/>
<path d="M96.7922 183.938V184.748C96.5813 184.75 96.3737 184.695 96.1922 184.588L75.0522 172.388C74.8702 172.279 74.7193 172.126 74.6142 171.942C74.5091 171.758 74.4533 171.55 74.4521 171.338V171.038L96.7922 183.938Z" fill="#E5E5E5"/>
<path d="M96.4522 184.118C96.2521 184.197 96.0366 184.23 95.8219 184.215C95.6072 184.199 95.3988 184.135 95.2122 184.028L74.2122 171.878C74.0299 171.773 73.8734 171.629 73.754 171.456C73.6346 171.283 73.5554 171.085 73.5222 170.878L71.2122 157.138C71.2073 157.061 71.2073 156.984 71.2122 156.908C71.2192 156.531 71.3735 156.172 71.6422 155.908L93.4422 168.528C93.5809 168.602 93.7003 168.707 93.7906 168.836C93.881 168.964 93.9398 169.112 93.9622 169.268L96.4522 184.118Z" fill="#F4F4F4"/>
<path d="M96.7923 183.948L96.6423 184.028C96.5819 184.064 96.5183 184.094 96.4523 184.118L93.9623 169.258C93.9398 169.102 93.8811 168.954 93.7907 168.826C93.7004 168.697 93.581 168.592 93.4423 168.518L71.5823 155.888C71.6655 155.798 71.7636 155.724 71.8723 155.668L93.7823 168.318C93.9163 168.396 94.0315 168.503 94.1196 168.631C94.2077 168.759 94.2667 168.905 94.2923 169.058L96.7923 183.948Z" fill="#E5E5E5"/>
<path d="M385.822 127.808C387.557 130.893 389.659 133.758 392.082 136.338C392.762 137.118 397.972 135.128 396.882 134.568C395.792 134.008 392.382 129.258 390.672 126.088C389.242 122.306 388.027 118.447 387.032 114.528C385.952 110.648 385.032 104.958 384.252 102.278C384.05 101.287 383.564 100.376 382.854 99.655C382.144 98.9344 381.24 98.4352 380.252 98.2178C378.382 97.7878 377.172 98.2978 377.512 100.568C378.122 104.528 381.232 119.998 385.822 127.808Z" fill="#FFCEA9"/>
<path d="M382.842 188.368C384.452 189.678 386.842 188.478 386.952 188.598C388.861 190.372 390.863 192.041 392.952 193.598C393.952 194.388 395.532 195.448 395.242 196.968C394.732 199.698 390.382 198.858 388.742 198.028C387.102 197.198 385.742 195.818 384.202 194.848C383.092 194.158 382.002 193.798 381.822 192.398C381.682 191.528 382.552 188.338 382.842 188.368Z" fill="#7E9793"/>
<path d="M381.812 191.798C382.022 193.138 383.102 193.508 384.202 194.188C385.782 195.188 387.202 196.588 388.812 197.418C390.422 198.248 394.112 198.948 395.182 197.008C394.602 199.628 390.322 198.808 388.702 198.008C387.082 197.208 385.702 195.798 384.162 194.828C383.052 194.138 381.962 193.778 381.782 192.378C381.773 192.184 381.783 191.99 381.812 191.798Z" fill="black"/>
<path d="M399.212 178.938C400.822 180.248 403.652 178.818 403.772 178.938C405.452 180.639 407.228 182.242 409.092 183.738C410.092 184.528 411.672 185.588 411.382 187.108C410.882 189.838 406.522 188.998 404.882 188.168C403.242 187.338 401.882 185.958 400.342 184.988C399.232 184.298 398.142 183.938 397.962 182.538C397.862 181.698 398.922 178.908 399.212 178.938Z" fill="#7E9793"/>
<path d="M398.012 182.168C398.232 183.508 399.302 183.878 400.402 184.558C401.982 185.558 403.402 186.958 405.022 187.788C406.642 188.618 410.322 189.328 411.392 187.378C410.812 190.008 406.532 189.178 404.902 188.378C403.272 187.578 401.902 186.168 400.372 185.198C399.262 184.508 398.172 184.198 397.992 182.758C397.984 182.561 397.991 182.364 398.012 182.168Z" fill="black"/>
<path d="M361.252 136.628C359.472 147.798 364.432 151.978 370.892 154.348C375.522 156.058 382.162 158.688 382.162 158.688C382.162 158.688 382.072 161.138 382.012 166.688C382.012 171.538 382.612 189.228 382.612 189.228C382.612 189.228 385.282 190.618 387.552 189.228C387.552 189.228 390.152 175.668 390.702 169.558C391.452 161.258 392.702 155.838 392.302 154.048C391.932 152.478 382.872 148.048 379.992 145.638L398.992 151.998C398.614 154.056 398.43 156.145 398.442 158.238C398.612 164.818 398.982 179.068 398.982 179.068C398.982 179.068 401.582 180.948 403.802 179.068C403.802 179.068 408.582 150.878 408.002 147.138C407.452 143.598 390.722 136.358 387.772 133.868C387.258 133.448 386.66 133.142 386.019 132.97C385.378 132.798 384.708 132.763 384.052 132.868L361.252 136.628Z" fill="#40514E"/>
<path d="M406.792 141.278L394.032 133.918C393.921 133.854 393.795 133.82 393.667 133.82C393.539 133.82 393.413 133.854 393.302 133.918L370.912 146.838L384.042 154.418L406.792 141.278Z" fill="#F4F4F4"/>
<path d="M383.452 151.708L382.452 152.268C382.372 152.268 382.382 152.398 382.452 152.448L383.372 152.988C383.42 153.012 383.473 153.025 383.527 153.025C383.581 153.025 383.634 153.012 383.682 152.988L384.682 152.428C384.752 152.428 384.742 152.298 384.682 152.248L383.752 151.708C383.706 151.683 383.654 151.67 383.602 151.67C383.55 151.67 383.498 151.683 383.452 151.708Z" fill="#3A2C6D"/>
<path d="M384.822 150.918L383.822 151.478C383.742 151.478 383.752 151.598 383.822 151.658L384.752 152.188C384.8 152.212 384.853 152.225 384.907 152.225C384.961 152.225 385.014 152.212 385.062 152.188L386.062 151.628C386.142 151.628 386.132 151.508 386.062 151.448L385.132 150.918C385.084 150.893 385.031 150.88 384.977 150.88C384.923 150.88 384.87 150.893 384.822 150.918Z" fill="#3A2C6D"/>
<path d="M386.212 150.108L385.212 150.668C385.132 150.718 385.142 150.798 385.212 150.848L386.142 151.388C386.19 151.412 386.243 151.425 386.297 151.425C386.351 151.425 386.404 151.412 386.452 151.388L387.452 150.828C387.532 150.778 387.522 150.698 387.452 150.648L386.522 150.108C386.473 150.085 386.421 150.074 386.367 150.074C386.314 150.074 386.261 150.085 386.212 150.108Z" fill="#3A2C6D"/>
<path d="M387.582 149.328L386.582 149.888C386.502 149.888 386.512 150.008 386.582 150.068L387.502 150.598C387.55 150.622 387.603 150.635 387.657 150.635C387.711 150.635 387.764 150.622 387.812 150.598L388.812 150.038C388.892 150.038 388.882 149.918 388.812 149.858L387.892 149.328C387.844 149.303 387.791 149.29 387.737 149.29C387.683 149.29 387.63 149.303 387.582 149.328Z" fill="#3A2C6D"/>
<path d="M388.952 148.528L387.952 149.088C387.872 149.138 387.882 149.218 387.952 149.268L388.882 149.808C388.93 149.832 388.983 149.845 389.037 149.845C389.091 149.845 389.144 149.832 389.192 149.808L390.192 149.248C390.272 149.248 390.262 149.118 390.192 149.068L389.262 148.528C389.214 148.503 389.161 148.49 389.107 148.49C389.053 148.49 389 148.503 388.952 148.528Z" fill="#3A2C6D"/>
<path d="M390.322 147.738L389.322 148.298C389.242 148.298 389.252 148.418 389.322 148.478L390.252 149.008C390.3 149.032 390.353 149.045 390.407 149.045C390.461 149.045 390.514 149.032 390.562 149.008L391.562 148.448C391.642 148.448 391.632 148.328 391.562 148.268L390.632 147.738C390.584 147.713 390.531 147.7 390.477 147.7C390.423 147.7 390.37 147.713 390.322 147.738Z" fill="#3A2C6D"/>
<path d="M391.712 146.938L390.712 147.498C390.632 147.548 390.642 147.628 390.712 147.678L391.632 148.218C391.68 148.242 391.733 148.255 391.787 148.255C391.841 148.255 391.894 148.242 391.942 148.218L392.942 147.658C393.022 147.658 393.012 147.528 392.942 147.478L392.022 146.938C391.973 146.915 391.921 146.904 391.867 146.904C391.814 146.904 391.761 146.915 391.712 146.938Z" fill="#3A2C6D"/>
<path d="M393.082 146.148L392.082 146.708C392.002 146.708 392.012 146.828 392.082 146.888L393.012 147.418C393.06 147.442 393.113 147.455 393.167 147.455C393.221 147.455 393.274 147.442 393.322 147.418L394.322 146.858C394.402 146.858 394.392 146.738 394.322 146.678L393.392 146.148C393.344 146.123 393.291 146.11 393.237 146.11C393.183 146.11 393.13 146.123 393.082 146.148Z" fill="#3A2C6D"/>
<path d="M394.462 145.348L393.462 145.908C393.382 145.958 393.392 146.038 393.462 146.088L394.392 146.628C394.44 146.652 394.493 146.665 394.547 146.665C394.601 146.665 394.654 146.652 394.702 146.628L395.702 146.068C395.782 146.018 395.772 145.938 395.702 145.888L394.772 145.348C394.723 145.325 394.671 145.314 394.617 145.314C394.564 145.314 394.511 145.325 394.462 145.348Z" fill="#3A2C6D"/>
<path d="M395.842 144.528L394.842 145.088C394.762 145.088 394.772 145.208 394.842 145.268L395.762 145.798C395.81 145.822 395.863 145.835 395.917 145.835C395.971 145.835 396.024 145.822 396.072 145.798L397.072 145.228C397.152 145.228 397.142 145.108 397.072 145.048L396.152 144.518C396.103 144.495 396.05 144.484 395.996 144.485C395.942 144.487 395.889 144.502 395.842 144.528Z" fill="#3A2C6D"/>
<path d="M397.212 143.758L396.212 144.318C396.132 144.368 396.142 144.448 396.212 144.498L397.142 145.038C397.19 145.062 397.243 145.075 397.297 145.075C397.351 145.075 397.404 145.062 397.452 145.038L398.452 144.478C398.532 144.428 398.522 144.348 398.452 144.298L397.522 143.758C397.473 143.735 397.421 143.724 397.367 143.724C397.314 143.724 397.261 143.735 397.212 143.758Z" fill="#3A2C6D"/>
<path d="M398.592 142.968L397.592 143.528C397.512 143.528 397.522 143.648 397.592 143.708L398.522 144.238C398.57 144.262 398.623 144.275 398.677 144.275C398.731 144.275 398.784 144.262 398.832 144.238L399.832 143.668C399.912 143.668 399.902 143.548 399.832 143.498L398.902 142.958C398.853 142.935 398.8 142.924 398.746 142.925C398.692 142.927 398.639 142.942 398.592 142.968Z" fill="#3A2C6D"/>
<path d="M399.972 142.168L398.972 142.728C398.902 142.778 398.912 142.858 398.972 142.908L399.902 143.448C399.948 143.472 400 143.485 400.052 143.485C400.104 143.485 400.156 143.472 400.202 143.448L401.202 142.888C401.282 142.838 401.272 142.758 401.202 142.708L400.272 142.168C400.225 142.147 400.174 142.136 400.122 142.136C400.07 142.136 400.019 142.147 399.972 142.168Z" fill="#3A2C6D"/>
<path d="M402.012 140.988L400.372 141.938C400.292 141.938 400.302 142.058 400.372 142.118L401.302 142.648C401.35 142.672 401.403 142.685 401.457 142.685C401.511 142.685 401.564 142.672 401.612 142.648L403.252 141.698C403.332 141.698 403.322 141.578 403.252 141.518L402.332 140.988C402.283 140.962 402.228 140.948 402.172 140.948C402.116 140.948 402.061 140.962 402.012 140.988Z" fill="#3A2C6D"/>
<path d="M384.152 149.758L383.152 150.318C383.072 150.368 383.082 150.448 383.152 150.498L384.082 151.038C384.13 151.062 384.183 151.075 384.237 151.075C384.291 151.075 384.344 151.062 384.392 151.038L385.392 150.478C385.472 150.428 385.462 150.348 385.392 150.298L384.462 149.758C384.414 149.733 384.361 149.72 384.307 149.72C384.253 149.72 384.2 149.733 384.152 149.758Z" fill="#3A2C6D"/>
<path d="M385.532 148.958L384.532 149.528C384.452 149.528 384.462 149.648 384.532 149.698L385.462 150.238C385.51 150.262 385.563 150.275 385.617 150.275C385.671 150.275 385.724 150.262 385.772 150.238L386.772 149.678C386.852 149.678 386.842 149.558 386.772 149.498L385.842 148.968C385.795 148.942 385.742 148.927 385.688 148.925C385.634 148.924 385.581 148.935 385.532 148.958Z" fill="#3A2C6D"/>
<path d="M386.912 148.168L385.912 148.728C385.832 148.778 385.842 148.858 385.912 148.908L386.842 149.438C386.89 149.462 386.943 149.475 386.997 149.475C387.051 149.475 387.104 149.462 387.152 149.438L388.152 148.878C388.232 148.828 388.222 148.748 388.152 148.698L387.222 148.158C387.173 148.135 387.12 148.124 387.066 148.125C387.012 148.127 386.959 148.142 386.912 148.168Z" fill="#3A2C6D"/>
<path d="M388.322 147.368L387.322 147.928C387.242 147.928 387.252 148.058 387.322 148.108L388.252 148.648C388.3 148.672 388.353 148.685 388.407 148.685C388.461 148.685 388.514 148.672 388.562 148.648L389.562 148.088C389.642 148.088 389.632 147.958 389.562 147.908L388.632 147.368C388.584 147.345 388.531 147.334 388.477 147.334C388.424 147.334 388.371 147.345 388.322 147.368Z" fill="#3A2C6D"/>
<path d="M389.662 146.578L388.662 147.138C388.582 147.138 388.592 147.268 388.662 147.318L389.592 147.858C389.64 147.882 389.693 147.895 389.747 147.895C389.801 147.895 389.854 147.882 389.902 147.858L390.902 147.298C390.982 147.248 390.972 147.168 390.902 147.118L389.972 146.578C389.923 146.555 389.871 146.544 389.817 146.544C389.764 146.544 389.711 146.555 389.662 146.578Z" fill="#3A2C6D"/>
<path d="M391.042 145.788L390.042 146.348C389.962 146.348 389.972 146.468 390.042 146.528L390.972 147.058C391.02 147.082 391.073 147.095 391.127 147.095C391.181 147.095 391.234 147.082 391.282 147.058L392.282 146.498C392.362 146.498 392.352 146.378 392.282 146.318L391.352 145.788C391.304 145.763 391.251 145.75 391.197 145.75C391.143 145.75 391.09 145.763 391.042 145.788Z" fill="#3A2C6D"/>
<path d="M392.422 144.988L391.422 145.548C391.352 145.548 391.362 145.678 391.422 145.728L392.352 146.268C392.399 146.29 392.45 146.302 392.502 146.302C392.554 146.302 392.605 146.29 392.652 146.268L393.652 145.708C393.732 145.658 393.722 145.578 393.652 145.528L392.722 144.988C392.675 144.965 392.624 144.953 392.572 144.953C392.52 144.953 392.469 144.965 392.422 144.988Z" fill="#3A2C6D"/>
<path d="M393.802 144.188L392.802 144.748C392.722 144.798 392.732 144.878 392.802 144.928L393.722 145.468C393.77 145.492 393.823 145.505 393.877 145.505C393.931 145.505 393.984 145.492 394.032 145.468L395.032 144.908C395.112 144.908 395.102 144.778 395.032 144.728L394.112 144.198C394.065 144.172 394.012 144.157 393.958 144.155C393.904 144.154 393.851 144.165 393.802 144.188Z" fill="#3A2C6D"/>
<path d="M395.182 143.398L394.182 143.958C394.102 143.958 394.112 144.078 394.182 144.138L395.102 144.668C395.15 144.692 395.203 144.705 395.257 144.705C395.311 144.705 395.364 144.692 395.412 144.668L396.412 144.098C396.492 144.098 396.482 143.978 396.412 143.928L395.492 143.388C395.443 143.365 395.39 143.354 395.336 143.355C395.282 143.357 395.229 143.372 395.182 143.398Z" fill="#3A2C6D"/>
<path d="M396.552 142.598L395.552 143.158C395.472 143.208 395.482 143.288 395.552 143.338L396.482 143.878C396.53 143.902 396.583 143.915 396.637 143.915C396.691 143.915 396.744 143.902 396.792 143.878L397.792 143.318C397.872 143.268 397.862 143.188 397.792 143.138L396.862 142.598C396.814 142.573 396.761 142.56 396.707 142.56C396.653 142.56 396.6 142.573 396.552 142.598Z" fill="#3A2C6D"/>
<path d="M397.932 141.798L396.932 142.368C396.852 142.368 396.862 142.488 396.932 142.538L397.862 143.078C397.91 143.102 397.963 143.115 398.017 143.115C398.071 143.115 398.124 143.102 398.172 143.078L399.172 142.518C399.252 142.518 399.242 142.398 399.172 142.338L398.242 141.808C398.195 141.782 398.142 141.767 398.088 141.765C398.034 141.764 397.981 141.775 397.932 141.798Z" fill="#3A2C6D"/>
<path d="M399.322 141.008L398.322 141.568C398.242 141.618 398.252 141.698 398.322 141.748L399.252 142.278C399.3 142.302 399.353 142.315 399.407 142.315C399.461 142.315 399.514 142.302 399.562 142.278L400.562 141.718C400.642 141.668 400.632 141.588 400.562 141.538L399.632 140.998C399.583 140.975 399.53 140.964 399.476 140.965C399.422 140.967 399.369 140.982 399.322 141.008Z" fill="#3A2C6D"/>
<path d="M382.772 150.528L381.142 151.468C381.062 151.518 381.072 151.598 381.142 151.648L382.072 152.188C382.121 152.21 382.174 152.222 382.227 152.222C382.281 152.222 382.334 152.21 382.382 152.188L384.012 151.238C384.092 151.238 384.082 151.118 384.012 151.068L383.082 150.528C383.034 150.503 382.981 150.49 382.927 150.49C382.873 150.49 382.82 150.503 382.772 150.528Z" fill="#3A2C6D"/>
<path d="M401.942 140.938L400.942 141.498C400.898 141.522 400.848 141.535 400.797 141.535C400.746 141.535 400.696 141.522 400.652 141.498L399.652 140.938C399.572 140.938 399.572 140.818 399.652 140.768H399.732C399.802 140.768 399.802 140.648 399.732 140.608L398.732 140.008C398.711 140.008 398.691 139.999 398.676 139.984C398.661 139.969 398.652 139.949 398.652 139.928C398.652 139.907 398.661 139.886 398.676 139.871C398.691 139.856 398.711 139.848 398.732 139.848L399.342 139.488C399.386 139.463 399.436 139.45 399.487 139.45C399.538 139.45 399.588 139.463 399.632 139.488L400.632 140.048L400.832 140.168L400.982 140.248L401.122 140.328L401.962 140.818C401.97 140.827 401.975 140.837 401.978 140.848C401.981 140.859 401.982 140.871 401.98 140.882C401.978 140.894 401.974 140.905 401.967 140.914C401.961 140.924 401.952 140.932 401.942 140.938Z" fill="#3A2C6D"/>
<path d="M378.112 148.628L377.112 149.188C377.032 149.188 377.042 149.308 377.112 149.368L378.042 149.898C378.09 149.922 378.143 149.935 378.197 149.935C378.251 149.935 378.304 149.922 378.352 149.898L379.352 149.338C379.432 149.338 379.422 149.218 379.352 149.158L378.422 148.628C378.374 148.603 378.321 148.59 378.267 148.59C378.213 148.59 378.16 148.603 378.112 148.628Z" fill="#3A2C6D"/>
<path d="M379.492 147.828L378.492 148.388C378.412 148.388 378.422 148.518 378.492 148.568L379.412 149.108C379.46 149.132 379.513 149.145 379.567 149.145C379.621 149.145 379.674 149.132 379.722 149.108L380.722 148.548C380.802 148.498 380.792 148.418 380.722 148.368L379.802 147.838C379.755 147.812 379.702 147.797 379.648 147.795C379.594 147.794 379.541 147.805 379.492 147.828Z" fill="#3A2C6D"/>
<path d="M380.862 147.038L379.862 147.598C379.782 147.648 379.792 147.728 379.862 147.778L380.792 148.318C380.841 148.34 380.894 148.352 380.947 148.352C381.001 148.352 381.054 148.34 381.102 148.318L382.102 147.758C382.182 147.708 382.172 147.628 382.102 147.578L381.172 147.038C381.124 147.013 381.071 147 381.017 147C380.963 147 380.91 147.013 380.862 147.038Z" fill="#3A2C6D"/>
<path d="M392.552 140.288L391.552 140.848C391.472 140.898 391.482 140.978 391.552 141.028L392.482 141.568C392.531 141.59 392.584 141.602 392.637 141.602C392.691 141.602 392.744 141.59 392.792 141.568L393.792 141.008C393.872 140.958 393.862 140.878 393.792 140.828L392.862 140.288C392.814 140.263 392.761 140.25 392.707 140.25C392.653 140.25 392.6 140.263 392.552 140.288Z" fill="#3A2C6D"/>
<path d="M393.922 139.528L392.922 140.088C392.842 140.088 392.852 140.208 392.922 140.268L393.852 140.798C393.9 140.822 393.953 140.835 394.007 140.835C394.061 140.835 394.114 140.822 394.162 140.798L395.162 140.228C395.242 140.228 395.232 140.108 395.162 140.058L394.232 139.518C394.183 139.495 394.13 139.484 394.076 139.485C394.022 139.487 393.969 139.502 393.922 139.528Z" fill="#3A2C6D"/>
<path d="M395.322 138.698L394.322 139.268C394.242 139.268 394.252 139.388 394.322 139.438L395.242 139.978C395.29 140.002 395.343 140.015 395.397 140.015C395.451 140.015 395.504 140.002 395.552 139.978L396.552 139.418C396.632 139.418 396.622 139.298 396.552 139.238L395.632 138.708C395.585 138.682 395.532 138.667 395.478 138.665C395.424 138.664 395.371 138.675 395.322 138.698Z" fill="#3A2C6D"/>
<path d="M396.672 137.908L395.672 138.468C395.592 138.518 395.602 138.598 395.672 138.648L396.602 139.188C396.65 139.212 396.703 139.225 396.757 139.225C396.811 139.225 396.864 139.212 396.912 139.188L397.912 138.628C397.992 138.578 397.982 138.498 397.912 138.448L396.982 137.908C396.933 137.885 396.881 137.874 396.827 137.874C396.774 137.874 396.721 137.885 396.672 137.908Z" fill="#3A2C6D"/>
<path d="M382.592 146.038L381.262 146.808C381.182 146.808 381.192 146.928 381.262 146.988L382.192 147.518C382.24 147.542 382.293 147.555 382.347 147.555C382.401 147.555 382.454 147.542 382.502 147.518L383.832 146.748C383.902 146.698 383.892 146.618 383.832 146.568L382.902 146.038C382.855 146.012 382.801 145.998 382.747 145.998C382.693 145.998 382.64 146.012 382.592 146.038Z" fill="#3A2C6D"/>
<path d="M391.182 141.078L389.852 141.848C389.772 141.848 389.782 141.968 389.852 142.028L390.782 142.558C390.83 142.582 390.883 142.595 390.937 142.595C390.991 142.595 391.044 142.582 391.092 142.558L392.422 141.788C392.502 141.738 392.492 141.658 392.422 141.608L391.492 141.078C391.444 141.053 391.391 141.04 391.337 141.04C391.283 141.04 391.23 141.053 391.182 141.078Z" fill="#3A2C6D"/>
<path d="M389.452 142.078L382.992 145.808C382.912 145.858 382.922 145.938 382.992 145.988L383.922 146.528C383.97 146.552 384.023 146.565 384.077 146.565C384.131 146.565 384.184 146.552 384.232 146.528L390.692 142.798C390.772 142.748 390.762 142.668 390.692 142.618L389.762 142.078C389.714 142.053 389.661 142.04 389.607 142.04C389.553 142.04 389.5 142.053 389.452 142.078Z" fill="#3A2C6D"/>
<path d="M383.192 148.768L382.192 149.338C382.112 149.338 382.122 149.458 382.192 149.508L383.122 150.048C383.17 150.072 383.223 150.085 383.277 150.085C383.331 150.085 383.384 150.072 383.432 150.048L384.432 149.488C384.512 149.488 384.502 149.368 384.432 149.308L383.502 148.778C383.455 148.752 383.402 148.737 383.348 148.735C383.294 148.734 383.241 148.745 383.192 148.768Z" fill="#3A2C6D"/>
<path d="M384.572 147.978L383.572 148.538C383.492 148.588 383.502 148.668 383.572 148.718L384.502 149.258C384.551 149.28 384.604 149.292 384.657 149.292C384.711 149.292 384.764 149.28 384.812 149.258L385.812 148.698C385.892 148.648 385.882 148.568 385.812 148.518L384.882 147.978C384.834 147.953 384.781 147.94 384.727 147.94C384.673 147.94 384.62 147.953 384.572 147.978Z" fill="#3A2C6D"/>
<path d="M385.942 147.188L384.942 147.748C384.862 147.748 384.872 147.868 384.942 147.928L385.872 148.458C385.92 148.482 385.973 148.495 386.027 148.495C386.081 148.495 386.134 148.482 386.182 148.458L387.182 147.898C387.262 147.898 387.252 147.778 387.182 147.718L386.252 147.188C386.204 147.163 386.151 147.15 386.097 147.15C386.043 147.15 385.99 147.163 385.942 147.188Z" fill="#3A2C6D"/>
<path d="M387.322 146.388L386.322 146.948C386.242 146.998 386.252 147.078 386.322 147.128L387.252 147.668C387.3 147.692 387.353 147.705 387.407 147.705C387.461 147.705 387.514 147.692 387.562 147.668L388.562 147.108C388.642 147.058 388.632 146.978 388.562 146.928L387.632 146.388C387.584 146.365 387.531 146.354 387.477 146.354C387.424 146.354 387.371 146.365 387.322 146.388Z" fill="#3A2C6D"/>
<path d="M388.692 145.598L387.692 146.158C387.612 146.208 387.622 146.288 387.692 146.338L388.622 146.868C388.67 146.892 388.723 146.905 388.777 146.905C388.831 146.905 388.884 146.892 388.932 146.868L389.932 146.308C390.012 146.258 390.002 146.178 389.932 146.128L389.002 145.588C388.953 145.565 388.9 145.554 388.846 145.555C388.792 145.557 388.739 145.572 388.692 145.598Z" fill="#3A2C6D"/>
<path d="M390.072 144.798L389.072 145.368C388.992 145.368 389.002 145.488 389.072 145.538L390.002 146.078C390.05 146.102 390.103 146.115 390.157 146.115C390.211 146.115 390.264 146.102 390.312 146.078L391.312 145.518C391.392 145.518 391.382 145.398 391.312 145.338L390.382 144.808C390.335 144.782 390.282 144.767 390.228 144.765C390.174 144.764 390.121 144.775 390.072 144.798Z" fill="#3A2C6D"/>
<path d="M391.452 144.008L390.452 144.568C390.372 144.618 390.382 144.698 390.452 144.748L391.382 145.288C391.431 145.31 391.484 145.322 391.537 145.322C391.591 145.322 391.643 145.31 391.692 145.288L392.692 144.728C392.772 144.678 392.762 144.598 392.692 144.548L391.762 144.008C391.715 143.982 391.661 143.968 391.607 143.968C391.553 143.968 391.5 143.982 391.452 144.008Z" fill="#3A2C6D"/>
<path d="M392.822 143.218L391.822 143.778C391.742 143.778 391.752 143.898 391.822 143.958L392.752 144.488C392.8 144.512 392.853 144.525 392.907 144.525C392.961 144.525 393.014 144.512 393.062 144.488L394.062 143.928C394.142 143.928 394.132 143.808 394.062 143.748L393.132 143.218C393.084 143.193 393.031 143.18 392.977 143.18C392.923 143.18 392.87 143.193 392.822 143.218Z" fill="#3A2C6D"/>
<path d="M394.202 142.418L393.202 142.978C393.122 143.028 393.132 143.108 393.202 143.158L394.122 143.698C394.17 143.722 394.223 143.735 394.277 143.735C394.331 143.735 394.384 143.722 394.432 143.698L395.432 143.138C395.502 143.088 395.492 143.008 395.432 142.958L394.512 142.418C394.463 142.395 394.411 142.384 394.357 142.384C394.304 142.384 394.251 142.395 394.202 142.418Z" fill="#3A2C6D"/>
<path d="M395.572 141.628L394.572 142.188C394.492 142.238 394.502 142.318 394.572 142.368L395.502 142.898C395.55 142.922 395.603 142.935 395.657 142.935C395.711 142.935 395.764 142.922 395.812 142.898L396.812 142.338C396.892 142.288 396.882 142.208 396.812 142.158L395.882 141.618C395.833 141.595 395.78 141.584 395.726 141.585C395.672 141.587 395.619 141.602 395.572 141.628Z" fill="#3A2C6D"/>
<path d="M396.952 140.828L395.952 141.398C395.872 141.398 395.882 141.518 395.952 141.568L396.872 142.108C396.92 142.132 396.973 142.145 397.027 142.145C397.081 142.145 397.134 142.132 397.182 142.108L398.182 141.548C398.262 141.548 398.252 141.428 398.182 141.368L397.262 140.838C397.215 140.812 397.162 140.797 397.108 140.795C397.054 140.794 397.001 140.805 396.952 140.828Z" fill="#3A2C6D"/>
<path d="M398.322 140.038L397.322 140.598C397.242 140.648 397.252 140.728 397.322 140.778L398.252 141.318C398.301 141.34 398.354 141.352 398.407 141.352C398.461 141.352 398.514 141.34 398.562 141.318L399.562 140.758C399.642 140.708 399.632 140.628 399.562 140.578L398.632 140.038C398.584 140.013 398.531 140 398.477 140C398.423 140 398.37 140.013 398.322 140.038Z" fill="#3A2C6D"/>
<path d="M381.822 149.528L379.822 150.688C379.742 150.738 379.752 150.818 379.822 150.868L380.752 151.398C380.8 151.422 380.853 151.435 380.907 151.435C380.961 151.435 381.014 151.422 381.062 151.398L383.062 150.238C383.142 150.188 383.132 150.108 383.062 150.058L382.132 149.518C382.083 149.495 382.03 149.484 381.976 149.485C381.922 149.487 381.869 149.502 381.822 149.528Z" fill="#3A2C6D"/>
<path d="M381.182 148.398L380.182 148.958C380.102 148.958 380.112 149.088 380.182 149.138L381.102 149.668C381.15 149.692 381.203 149.705 381.257 149.705C381.311 149.705 381.364 149.692 381.412 149.668L382.412 149.108C382.492 149.108 382.482 148.978 382.412 148.928L381.492 148.388C381.443 148.365 381.39 148.354 381.336 148.355C381.282 148.357 381.229 148.372 381.182 148.398Z" fill="#3A2C6D"/>
<path d="M382.552 147.598L381.552 148.168C381.472 148.168 381.482 148.288 381.552 148.338L382.482 148.878C382.53 148.902 382.583 148.915 382.637 148.915C382.691 148.915 382.744 148.902 382.792 148.878L383.792 148.318C383.872 148.318 383.862 148.198 383.792 148.138L382.862 147.608C382.815 147.582 382.762 147.567 382.708 147.565C382.654 147.564 382.601 147.575 382.552 147.598Z" fill="#3A2C6D"/>
<path d="M383.932 146.808L382.932 147.368C382.852 147.368 382.862 147.498 382.932 147.548L383.852 148.088C383.901 148.11 383.954 148.122 384.007 148.122C384.061 148.122 384.113 148.11 384.162 148.088L385.162 147.528C385.242 147.528 385.232 147.398 385.162 147.348L384.242 146.808C384.194 146.783 384.141 146.77 384.087 146.77C384.033 146.77 383.98 146.783 383.932 146.808Z" fill="#3A2C6D"/>
<path d="M385.322 146.018L384.322 146.578C384.242 146.578 384.252 146.698 384.322 146.758L385.252 147.288C385.299 147.315 385.353 147.329 385.407 147.329C385.462 147.329 385.515 147.315 385.562 147.288L386.562 146.728C386.642 146.728 386.632 146.608 386.562 146.548L385.632 146.018C385.584 145.993 385.531 145.98 385.477 145.98C385.423 145.98 385.37 145.993 385.322 146.018Z" fill="#3A2C6D"/>
<path d="M386.682 145.218L385.682 145.778C385.602 145.828 385.612 145.908 385.682 145.958L386.602 146.498C386.65 146.522 386.703 146.535 386.757 146.535C386.811 146.535 386.864 146.522 386.912 146.498L387.912 145.938C387.992 145.938 387.982 145.808 387.912 145.758L386.992 145.218C386.943 145.195 386.891 145.184 386.837 145.184C386.784 145.184 386.731 145.195 386.682 145.218Z" fill="#3A2C6D"/>
<path d="M388.052 144.428L387.052 144.988C386.972 144.988 386.982 145.118 387.052 145.168L387.982 145.698C388.03 145.722 388.083 145.735 388.137 145.735C388.191 145.735 388.244 145.722 388.292 145.698L389.292 145.138C389.372 145.138 389.362 145.008 389.292 144.958L388.362 144.418C388.313 144.395 388.26 144.384 388.206 144.385C388.152 144.387 388.099 144.402 388.052 144.428Z" fill="#3A2C6D"/>
<path d="M389.432 143.628L388.432 144.198C388.352 144.198 388.362 144.318 388.432 144.368L389.352 144.908C389.4 144.932 389.453 144.945 389.507 144.945C389.561 144.945 389.614 144.932 389.662 144.908L390.662 144.348C390.742 144.348 390.732 144.228 390.662 144.168L389.742 143.638C389.695 143.612 389.642 143.597 389.588 143.595C389.534 143.594 389.481 143.605 389.432 143.628Z" fill="#3A2C6D"/>
<path d="M390.802 142.838L389.802 143.398C389.722 143.398 389.732 143.528 389.802 143.578L390.732 144.118C390.78 144.142 390.833 144.155 390.887 144.155C390.941 144.155 390.994 144.142 391.042 144.118L392.042 143.558C392.122 143.558 392.112 143.428 392.042 143.378L391.112 142.838C391.064 142.813 391.011 142.8 390.957 142.8C390.903 142.8 390.85 142.813 390.802 142.838Z" fill="#3A2C6D"/>
<path d="M392.182 142.048L391.182 142.608C391.102 142.608 391.112 142.728 391.182 142.788L392.102 143.318C392.15 143.342 392.203 143.355 392.257 143.355C392.311 143.355 392.364 143.342 392.412 143.318L393.412 142.748C393.492 142.748 393.482 142.628 393.412 142.578L392.492 142.038C392.443 142.015 392.39 142.004 392.336 142.005C392.282 142.007 392.229 142.022 392.182 142.048Z" fill="#3A2C6D"/>
<path d="M393.552 141.248L392.552 141.808C392.472 141.858 392.482 141.938 392.552 141.988L393.482 142.528C393.53 142.552 393.583 142.565 393.637 142.565C393.691 142.565 393.744 142.552 393.792 142.528L394.792 141.968C394.872 141.968 394.862 141.838 394.792 141.788L393.862 141.258C393.815 141.232 393.762 141.217 393.708 141.215C393.654 141.214 393.601 141.225 393.552 141.248Z" fill="#3A2C6D"/>
<path d="M394.932 140.458L393.932 141.018C393.852 141.018 393.862 141.148 393.932 141.198L394.852 141.728C394.9 141.752 394.953 141.765 395.007 141.765C395.061 141.765 395.114 141.752 395.162 141.728L396.162 141.168C396.242 141.168 396.232 141.038 396.162 140.988L395.242 140.448C395.193 140.425 395.14 140.414 395.086 140.415C395.032 140.417 394.979 140.432 394.932 140.458Z" fill="#3A2C6D"/>
<path d="M398.002 138.678L395.322 140.228C395.242 140.228 395.252 140.348 395.322 140.408L396.252 140.938C396.3 140.962 396.353 140.975 396.407 140.975C396.461 140.975 396.514 140.962 396.562 140.938L399.232 139.398C399.312 139.398 399.302 139.268 399.232 139.218L398.302 138.688C398.256 138.663 398.205 138.65 398.153 138.648C398.101 138.646 398.05 138.656 398.002 138.678Z" fill="#3A2C6D"/>
<path d="M379.802 149.188L378.472 149.958C378.402 149.958 378.412 150.078 378.472 150.138L379.402 150.668C379.448 150.692 379.5 150.705 379.552 150.705C379.604 150.705 379.656 150.692 379.702 150.668L381.032 149.908C381.112 149.908 381.102 149.778 381.032 149.728L380.102 149.188C380.055 149.167 380.004 149.156 379.952 149.156C379.901 149.156 379.849 149.167 379.802 149.188Z" fill="#3A2C6D"/>
<path d="M403.392 141.788L383.862 153.068C383.782 153.068 383.792 153.188 383.862 153.248L384.332 153.508C384.38 153.532 384.433 153.545 384.487 153.545C384.541 153.545 384.594 153.532 384.642 153.508L404.162 142.228C404.242 142.178 404.232 142.098 404.162 142.048L403.702 141.778C403.653 141.757 403.6 141.747 403.546 141.749C403.493 141.75 403.44 141.764 403.392 141.788Z" fill="#3A2C6D"/>
<path d="M380.542 142.288L380.672 142.368L384.042 144.318L390.042 140.848L390.162 140.778L386.662 138.758L380.542 142.288Z" fill="#BFBFBF"/>
<path d="M380.672 142.368L384.042 144.318L390.042 140.848L386.662 138.898L380.672 142.368Z" fill="#E5E5E5"/>
<path d="M370.912 146.838V147.138C370.913 147.355 370.97 147.568 371.079 147.756C371.188 147.943 371.344 148.099 371.532 148.208L383.422 155.068C383.609 155.182 383.824 155.241 384.042 155.238C384.257 155.24 384.469 155.181 384.652 155.068L406.172 142.648C406.361 142.541 406.519 142.385 406.628 142.197C406.737 142.009 406.793 141.795 406.792 141.578V141.278L384.042 154.418L370.912 146.838Z" fill="#E5E5E5"/>
<path d="M384.392 154.598C384.594 154.678 384.812 154.711 385.029 154.693C385.245 154.676 385.455 154.609 385.642 154.498L407.072 142.128C407.256 142.023 407.415 141.879 407.538 141.707C407.661 141.534 407.744 141.336 407.782 141.128L410.122 127.128C410.132 127.048 410.132 126.967 410.122 126.888C410.115 126.511 409.961 126.152 409.692 125.888L387.422 138.748C387.288 138.829 387.172 138.938 387.082 139.067C386.993 139.197 386.931 139.343 386.902 139.498L384.392 154.598Z" fill="#F4F4F4"/>
<path d="M384.042 154.418L384.192 154.498L384.392 154.598L386.922 139.458C386.951 139.303 387.013 139.157 387.102 139.027C387.192 138.898 387.308 138.789 387.442 138.708L409.712 125.848C409.623 125.758 409.522 125.681 409.412 125.618L387.102 138.528C386.962 138.603 386.842 138.71 386.751 138.84C386.661 138.97 386.603 139.12 386.582 139.278L384.042 154.418Z" fill="#E5E5E5"/>
<path d="M367.872 94.5278C367.872 94.5278 368.142 99.8578 368.022 100.328C367.902 100.798 365.582 102.328 364.902 102.918C364.222 103.508 368.582 107.778 370.702 108.748C372.822 109.718 379.532 107.158 379.652 103.858C379.772 100.558 378.502 97.7978 377.472 97.6478C376.442 97.4978 367.872 94.5278 367.872 94.5278Z" fill="#FFCEA9"/>
<path d="M367.322 101.268C367.322 101.268 371.182 107.018 376.572 107.568C378.272 105.888 378.432 99.9278 376.072 98.0278C376.072 98.0278 378.232 96.2778 379.712 96.6178C381.304 97.5798 382.489 99.0917 383.042 100.868C384.416 104.826 385.059 109 384.942 113.188C384.852 118.828 384.942 133.108 384.942 133.108C384.626 134.793 383.956 136.393 382.977 137.801C381.998 139.209 380.732 140.394 379.262 141.278C375.379 143.474 370.805 144.107 366.472 143.048C363.742 142.408 362.722 140.878 361.782 138.898C362.032 134.898 363.592 126.798 362.942 121.818C362.292 116.838 361.222 113.128 360.942 109.098C360.662 105.068 361.472 105.158 363.492 103.728C364.708 102.817 365.988 101.995 367.322 101.268Z" fill="#F4F4F4"/>
<path d="M373.462 147.138C372.502 146.495 371.499 145.917 370.462 145.408C369.486 145.099 368.597 144.561 367.872 143.838C366.922 142.908 365.372 139.398 364.262 135.978C363.158 132.12 362.718 128.103 362.962 124.098C363.432 119.298 365.162 112.578 365.602 109.818C366.042 107.058 365.142 105.958 363.862 104.948C362.352 103.748 360.272 104.278 359.162 108.148C357.726 113.499 356.887 118.992 356.662 124.528C356.612 128.641 357.248 132.733 358.542 136.638C359.687 139.983 361.235 143.177 363.152 146.148C363.682 147.048 363.852 147.838 364.662 149.658C365.444 151.488 366.659 153.101 368.202 154.358C369.552 155.358 370.202 155.468 370.512 155.288C370.822 155.108 370.832 154.618 370.262 154.098C369.301 153.352 368.485 152.437 367.852 151.398C367.852 151.398 369.032 152.588 369.852 153.238C370.543 153.809 371.302 154.293 372.112 154.678C372.912 155.018 374.002 154.348 373.452 153.818C372.902 153.288 372.312 153.028 371.182 152.048C370.581 151.534 370.043 150.95 369.582 150.308C370.375 150.913 371.214 151.454 372.092 151.928C372.764 152.334 373.537 152.542 374.322 152.528C374.742 152.528 375.252 151.928 374.472 151.358C373.396 150.813 372.389 150.142 371.472 149.358C370.612 148.498 370.122 147.768 370.362 147.758C370.602 147.748 371.072 148.278 372.092 148.598C373.112 148.918 374.192 148.598 374.322 148.068C374.452 147.538 374.412 147.608 373.462 147.138Z" fill="#FFCEA9"/>
<path d="M379.912 86.6178C379.282 82.4878 376.302 79.3578 372.042 79.6178C369.876 79.7493 367.85 80.731 366.404 82.3491C364.958 83.9672 364.21 86.0908 364.322 88.2578C364.39 89.5047 364.745 90.7191 365.359 91.8066C365.973 92.8941 366.83 93.8253 367.862 94.5278C368.015 95.1535 368.236 95.7604 368.522 96.3378C370.032 98.0978 374.592 99.1878 375.902 98.9978C376.682 98.9355 377.426 98.6399 378.036 98.1495C378.645 97.659 379.094 96.9964 379.322 96.2478C380.702 92.9978 380.262 88.6578 379.912 86.6178Z" fill="#FFCEA9"/>
<path d="M367.862 94.5278L368.262 90.9278C368.262 90.9278 365.312 83.2978 372.262 84.7678C376.852 85.7678 378.012 86.1478 379.402 83.0678C380.792 79.9878 375.872 77.2178 370.022 77.9878C368.005 78.1981 366.141 79.1591 364.8 80.68C363.459 82.2009 362.739 84.1705 362.782 86.1978C362.942 88.5278 363.542 93.0678 367.862 94.5278Z" fill="#3A2C6D"/>
<path d="M355.952 115.248C355.952 115.248 359.752 119.018 364.242 117.938C364.892 117.498 366.432 108.668 366.432 108.668C366.432 108.668 366.432 103.778 362.682 103.908C358.932 104.038 355.952 115.248 355.952 115.248Z" fill="#EDEDED"/>
<path d="M384.632 107.918C385.694 107.874 386.699 107.427 387.442 106.668C387.292 104.668 384.762 97.1778 379.662 96.6678C381.053 97.6361 382.155 98.9631 382.852 100.508C383.633 102.929 384.228 105.406 384.632 107.918Z" fill="#EDEDED"/>
</g>
<defs>
<clipPath id="clip0">
<rect x="0.322266" y="0.527771" width="478.23" height="500" fill="white"/>
</clipPath>
</defs>
</svg>
